<svg width="40" height="40" viewBox="0 0 40 40" fill="none" xmlns="http://www.w3.org/2000/svg">
<g clip-path="url(#clip0_1926_258399)">
<path d="M0 40L0 0H40V40H0Z" fill="white"/>
<path d="M28.5204 14.072L26.9353 11.7158L26.0686 12.2873L27.6574 14.6435L28.5204 14.072Z" fill="#010101"/>
<path d="M30.4028 16.8567L28.8103 14.5005L27.9451 15.0719L29.5346 17.4238L30.4028 16.8567Z" fill="#010101"/>
<path d="M28.251 10.8604L31.7207 16.0005L30.8519 16.5732L27.3821 11.4331L28.251 10.8604Z" fill="#010101"/>
<path d="M31.1249 12.3613L29.5347 10L28.6672 10.5715L30.2575 12.9284L31.1249 12.3613Z" fill="#010101"/>
<path d="M32.1332 15.7194L32.9999 15.1472L31.4119 12.791L30.5466 13.3625L32.1332 15.7194Z" fill="#010101"/>
<path d="M13.0667 28.2686L9.59935 23.1321L10.4664 22.5605L13.9337 27.697L13.0667 28.2686Z" fill="#010101"/>
<path d="M9.89771 26.3467L8.31027 23.995L9.17596 23.4244L10.7634 25.776L9.89771 26.3467Z" fill="#010101"/>
<path d="M11.762 29.1499L10.1748 26.7943L11.0418 26.2238L12.629 28.5794L11.762 29.1499Z" fill="#010101"/>
<path d="M7.87585 24.2925L11.3427 29.4284L10.4751 30.0003L7.00823 24.8644L7.87585 24.2925Z" fill="#010101"/>
<path d="M10.4665 17.4239L13.9326 12.2873L13.0666 11.7158L9.59985 16.8568L10.4665 17.4239Z" fill="#010101"/>
<path d="M12.6416 11.4326L9.17811 16.5727L8.3117 16.0026L11.7752 10.8625L12.6416 11.4326Z" fill="#010101"/>
<path d="M11.332 10.5715L10.4668 10L7 15.1468L7.86743 15.719L11.332 10.5715Z" fill="#010101"/>
<path d="M26.0695 27.6777L27.6569 25.3261L28.5238 25.8976L26.9364 28.2492L26.0695 27.6777Z" fill="#010101"/>
<path d="M28.8103 25.4921L30.4028 23.1366L29.5346 22.5645L27.9451 24.9264L28.8103 25.4921Z" fill="#010101"/>
<path d="M27.3777 28.583L28.9676 26.2277L29.8363 26.8004L28.2464 29.1557L27.3777 28.583Z" fill="#010101"/>
<path d="M31.7048 23.9741L30.1133 26.3248L29.246 25.7513L30.8375 23.4007L31.7048 23.9741Z" fill="#010101"/>
<path d="M28.6672 29.4173L29.5347 29.988L31.1249 27.6318L30.2575 27.0654L28.6672 29.4173Z" fill="#010101"/>
<path d="M30.5466 26.6365L31.4119 27.2036L32.9999 24.8525L32.1332 24.2803L30.5466 26.6365Z" fill="#010101"/>
<path d="M15.6684 20.8552C17.1031 21.8009 19.0427 21.4165 20.0011 19.9966C20.9581 18.5766 22.8977 18.1974 24.3331 19.1387C25.7715 20.0851 26.1575 22.0076 25.1991 23.4217C27.1145 20.5826 26.3402 16.7477 23.4701 14.8549C20.597 12.9621 16.7163 13.7359 14.801 16.57C13.8411 17.9856 14.2315 19.9074 15.6684 20.8552Z" fill="#CD2E3A"/>
<path d="M16.5328 25.1384C19.4066 27.0312 23.2858 26.2675 25.199 23.4225C26.1582 22.0084 25.7714 20.0859 24.3331 19.1395C22.8976 18.1989 20.958 18.5782 20.0011 19.9974C19.0426 21.4173 17.103 21.8017 15.6683 20.8553C14.2314 19.9075 13.8418 17.9857 14.8009 16.5708C12.8863 19.4107 13.6627 23.2463 16.5328 25.1384Z" fill="#0047A0"/>
</g>
<rect x="0.5" y="0.5" width="39" height="39" rx="19.5" stroke="#F3F3F3"/>
<defs>
<clipPath id="clip0_1926_258399">
<rect width="40" height="40" rx="20" fill="white"/>
</clipPath>
</defs>
</svg>
