<svg width="20" height="20" viewBox="0 0 20 20" fill="none" xmlns="http://www.w3.org/2000/svg">
<rect width="20" height="20" rx="10" fill="white"/>
<path fill-rule="evenodd" clip-rule="evenodd" d="M10.5275 5.50633C10.5275 5.22669 10.2913 5 10 5C9.70868 5 9.47252 5.22669 9.47252 5.50633V5.88608H9.17849C8.0048 5.88608 7.03339 6.76203 6.96013 7.88645L6.84355 9.67554C6.79911 10.3577 6.56053 11.015 6.15381 11.576C5.78632 12.0829 6.11348 12.7829 6.75222 12.8565L8.54942 13.0635V13.6076C8.54942 14.3766 9.19887 15 10 15C10.8011 15 11.4506 14.3766 11.4506 13.6076V13.0635L13.2478 12.8565C13.8865 12.7829 14.2137 12.0829 13.8462 11.576C13.4395 11.015 13.2009 10.3577 13.1564 9.67554L13.0399 7.88645C12.9666 6.76203 11.9952 5.88608 10.8215 5.88608H10.5275V5.50633ZM9.34065 13.6076C9.34065 13.9571 9.63585 14.2405 10 14.2405C10.3642 14.2405 10.6594 13.9571 10.6594 13.6076V13.2278H9.34065V13.6076Z" fill="#52B6D3"/>
</svg>
