<svg width="20" height="20" viewBox="0 0 20 20" fill="none" xmlns="http://www.w3.org/2000/svg">
<path fill-rule="evenodd" clip-rule="evenodd" d="M10.9231 1.91139C10.9231 1.40804 10.5098 1 10 1C9.49019 1 9.07691 1.40804 9.07691 1.91139V2.59494H8.56236C6.50841 2.59494 4.80844 4.17166 4.68022 6.19562L4.47622 9.41598C4.39844 10.6438 3.98093 11.827 3.26917 12.8368C2.62607 13.7491 3.19859 15.0092 4.31639 15.1416L7.46149 15.5143V16.4937C7.46149 17.8779 8.59802 19 10 19C11.402 19 12.5385 17.8779 12.5385 16.4937V15.5143L15.6836 15.1416C16.8014 15.0092 17.3739 13.7491 16.7308 12.8368C16.0191 11.827 15.6016 10.6438 15.5238 9.41598L15.3198 6.19561C15.1916 4.17166 13.4916 2.59494 11.4376 2.59494H10.9231V1.91139ZM8.84614 16.4937C8.84614 17.1229 9.36274 17.6329 10 17.6329C10.6373 17.6329 11.1539 17.1229 11.1539 16.4937V15.8101H8.84614V16.4937Z" fill="#B3B3B3"/>
</svg>
