<svg width="105" height="116" viewBox="0 0 105 116" fill="none" xmlns="http://www.w3.org/2000/svg">
<path d="M18 25H33.8219C44.4137 25 53 33.1866 53 43.2853V56.9992H37.1781C26.5863 56.9992 18 48.8126 18 38.714V25Z" fill="white"/>
<path d="M53 57.001H68.8219C79.4137 57.001 88 65.1876 88 75.2862V89.0002H72.1781C61.5863 89.0002 53 80.8136 53 70.7149V57.001Z" fill="url(#paint0_linear_1120_211805)"/>
<path opacity="0.31" d="M18 88.9976H33.8219C44.4137 88.9976 53 80.811 53 70.7123V56.9983H37.1781C26.5863 56.9983 18 65.1849 18 75.2836V88.9976Z" fill="url(#paint1_linear_1120_211805)"/>
<path opacity="0.31" d="M53 57.001H68.8219C79.4137 57.001 88 49.0483 88 39.2381V25.916H72.1781C61.5863 25.916 53 33.8687 53 43.6789V57.001Z" fill="url(#paint2_linear_1120_211805)"/>
<path d="M87.5273 25.4556L52.3794 57.3298" stroke="white" stroke-opacity="0.13" stroke-dasharray="4 4"/>
<line y1="-0.5" x2="46.8111" y2="-0.5" transform="matrix(-0.747687 0.664052 -0.68904 -0.724723 53 57.001)" stroke="white" stroke-opacity="0.13" stroke-dasharray="4 4"/>
<defs>
<linearGradient id="paint0_linear_1120_211805" x1="70.5" y1="57.001" x2="70.5" y2="89.0002" gradientUnits="userSpaceOnUse">
<stop stop-color="white"/>
<stop offset="1" stop-color="white" stop-opacity="0"/>
</linearGradient>
<linearGradient id="paint1_linear_1120_211805" x1="35.5" y1="88.9976" x2="35.5" y2="56.9983" gradientUnits="userSpaceOnUse">
<stop stop-color="white"/>
<stop offset="1" stop-color="white" stop-opacity="0"/>
</linearGradient>
<linearGradient id="paint2_linear_1120_211805" x1="70.5" y1="57.001" x2="70.5" y2="25.916" gradientUnits="userSpaceOnUse">
<stop stop-color="white"/>
<stop offset="1" stop-color="white" stop-opacity="0"/>
</linearGradient>
</defs>
</svg>
