<svg width="105" height="116" viewBox="0 0 105 116" fill="none" xmlns="http://www.w3.org/2000/svg">
<path fill-rule="evenodd" clip-rule="evenodd" d="M52.7405 61.1957L87.1951 41.1801L52.7405 21.1644V20.9985L52.5977 21.0815L52.4549 20.9985V21.1644L18.0003 41.1801L52.4549 61.1957V61.3616L52.5977 61.2787L52.7405 61.3616V61.1957Z" fill="url(#paint0_linear_1120_211790)"/>
<path fill-rule="evenodd" clip-rule="evenodd" d="M52.7405 61.1957L87.1951 41.1801L52.7405 21.1644V20.9985L52.5977 21.0815L52.4549 20.9985V21.1644L18.0003 41.1801L52.4549 61.1957V61.3616L52.5977 61.2787L52.7405 61.3616V61.1957Z" fill="url(#paint1_angular_1120_211790)"/>
<path fill-rule="evenodd" clip-rule="evenodd" d="M52.7405 78.0121L87.1951 57.9965L52.7405 37.9808V37.8149L52.5977 37.8979L52.4549 37.8149V37.9808L18.0003 57.9965L52.4549 78.0121V78.178L52.5977 78.0951L52.7405 78.178V78.0121Z" fill="url(#paint2_linear_1120_211790)"/>
<path opacity="0.31" fill-rule="evenodd" clip-rule="evenodd" d="M52.7405 94.8319L87.1951 74.8163L52.7405 54.8007V54.6348L52.5977 54.7177L52.4549 54.6348V54.8007L18.0003 74.8163L52.4549 94.8319V94.9978L52.5977 94.9149L52.7405 94.9978V94.8319Z" fill="url(#paint3_linear_1120_211790)"/>
<line x1="52.6829" y1="61.3599" x2="52.6829" y2="94.9958" stroke="white" stroke-opacity="0.14" stroke-dasharray="2 2"/>
<line x1="18.5002" y1="41.1816" x2="18.5002" y2="74.8176" stroke="white" stroke-opacity="0.14" stroke-dasharray="2 2"/>
<line x1="86.8617" y1="41.1816" x2="86.8617" y2="74.8176" stroke="white" stroke-opacity="0.14" stroke-dasharray="2 2"/>
<defs>
<linearGradient id="paint0_linear_1120_211790" x1="87.1951" y1="41.1801" x2="18.0003" y2="41.1801" gradientUnits="userSpaceOnUse">
<stop stop-color="white"/>
<stop offset="1" stop-color="white"/>
</linearGradient>
<radialGradient id="paint1_angular_1120_211790" cx="0" cy="0" r="1" gradientUnits="userSpaceOnUse" gradientTransform="translate(53.0145 41.1801) rotate(-180) scale(35.0142 20.4247)">
<stop offset="0.498062" stop-color="white"/>
<stop offset="1" stop-color="white" stop-opacity="0"/>
</radialGradient>
<linearGradient id="paint2_linear_1120_211790" x1="87.1951" y1="57.9965" x2="18.0003" y2="57.9965" gradientUnits="userSpaceOnUse">
<stop stop-color="white"/>
<stop offset="1" stop-color="white" stop-opacity="0"/>
</linearGradient>
<linearGradient id="paint3_linear_1120_211790" x1="87.1951" y1="74.8163" x2="18.0003" y2="74.8163" gradientUnits="userSpaceOnUse">
<stop stop-color="white"/>
<stop offset="1" stop-color="white" stop-opacity="0"/>
</linearGradient>
</defs>
</svg>
