<svg width="20" height="20" viewBox="0 0 20 20" fill="none" xmlns="http://www.w3.org/2000/svg">
<path fill-rule="evenodd" clip-rule="evenodd" d="M17.0714 5.20256C16.6682 4.96115 16.2028 4.82849 15.5933 4.75559C15.2997 4.72048 15.0666 4.49147 15.0182 4.19976C14.9158 3.5823 14.7293 3.13327 14.3897 2.78105C13.6365 2 12.4244 2 10 2C7.57563 2 6.36345 2 5.6103 2.78105C5.27066 3.13327 5.08418 3.58229 4.9818 4.19975C4.93343 4.49147 4.70027 4.72047 4.40667 4.75559C3.7972 4.82849 3.33178 4.96115 2.92857 5.20256C2.34221 5.55364 1.85529 6.05859 1.51676 6.66667C1 7.59487 1 8.84102 1 11.3333C1 13.8256 1 15.0718 1.51676 16C1.85529 16.6081 2.34221 17.113 2.92857 17.4641C3.82362 18 5.02527 18 7.42857 18H12.5714C14.9747 18 16.1764 18 17.0714 17.4641C17.6578 17.113 18.1447 16.6081 18.4832 16C19 15.0718 19 13.8256 19 11.3333C19 8.84102 19 7.59487 18.4832 6.66667C18.1447 6.05859 17.6578 5.55364 17.0714 5.20256ZM10 15.3333C12.1302 15.3333 13.8571 13.5425 13.8571 11.3333C13.8571 9.12419 12.1302 7.33333 10 7.33333C7.86976 7.33333 6.14286 9.12419 6.14286 11.3333C6.14286 13.5425 7.86976 15.3333 10 15.3333Z" fill="#B3B3B3"/>
</svg>
