<svg width="20" height="20" viewBox="0 0 20 20" fill="none" xmlns="http://www.w3.org/2000/svg">
<path fill-rule="evenodd" clip-rule="evenodd" d="M10 18C14.4183 18 18 14.4183 18 10C18 5.58172 14.4183 2 10 2C5.58172 2 2 5.58172 2 10C2 14.4183 5.58172 18 10 18ZM14.2071 8.20711C14.5976 7.81658 14.5976 7.18342 14.2071 6.79289C13.8166 6.40237 13.1834 6.40237 12.7929 6.79289L8.5 11.0858L7.20711 9.79289C6.81658 9.40237 6.18342 9.40237 5.79289 9.79289C5.40237 10.1834 5.40237 10.8166 5.79289 11.2071L7.79289 13.2071L8.5 13.9142L9.20711 13.2071L14.2071 8.20711Z" fill="#27B31A"/>
</svg>
