<svg width="20" height="20" viewBox="0 0 20 20" fill="none" xmlns="http://www.w3.org/2000/svg">
<defs>
<clipPath id="clip0_638_53243">
<rect width="20" height="20" fill="white"/>
</clipPath>
</defs>
<g clip-path="url(#clip0_638_53243)">
<path d="M17.6612 6.05588L8.38725 15.647C8.16836 15.8729 7.87179 15.9998 7.56258 15.9998C7.25338 15.9998 6.9568 15.8729 6.73791 15.647L2.33878 11.0975C2.1213 10.8711 1.99947 10.5647 2 10.2455C2.00053 9.92634 2.12336 9.62039 2.34159 9.3947C2.55982 9.169 2.85565 9.04197 3.16427 9.04142C3.47289 9.04087 3.76914 9.16686 3.98811 9.39179L7.3228 12.8406C7.38639 12.9064 7.47265 12.9434 7.56258 12.9434C7.65252 12.9434 7.73877 12.9064 7.80237 12.8406L16.0119 4.35012C16.2309 4.1252 16.5271 3.99921 16.8357 3.99976C17.1444 4.0003 17.4402 4.12734 17.6584 4.35303C17.8766 4.57873 17.9995 4.88468 18 5.20386C18.0005 5.52304 17.8787 5.82942 17.6612 6.05588Z" fill="#B3B3B3"/>
</g>
</svg>
