<svg width="20" height="20" viewBox="0 0 20 20" fill="none" xmlns="http://www.w3.org/2000/svg">
<path fill-rule="evenodd" clip-rule="evenodd" d="M6.62392 4.34498H6.17586L6.12725 4.34498C5.71815 4.34491 5.32954 4.34485 5.01073 4.38673C4.65454 4.43352 4.25954 4.54601 3.93261 4.86543C3.60568 5.18484 3.49053 5.57077 3.44265 5.91878C3.39978 6.23026 3.39985 6.60993 3.39991 7.00964L3.39992 7.05712V7.49489L3.39991 7.54237C3.39985 7.94208 3.39978 8.32175 3.44265 8.63323C3.49053 8.98124 3.60568 9.36717 3.93261 9.68658C4.25954 10.006 4.65454 10.1185 5.01073 10.1653C5.32954 10.2072 5.71814 10.2071 6.12725 10.207H6.12726L6.17586 10.207H6.62392L6.67251 10.207H6.67252C7.08163 10.2071 7.47023 10.2072 7.78904 10.1653C8.14523 10.1185 8.54024 10.006 8.86716 9.68658C9.19409 9.36717 9.30924 8.98124 9.35713 8.63323C9.39999 8.32175 9.39993 7.94208 9.39986 7.54238V7.54237L9.39985 7.49489V7.05712L9.39986 7.00964V7.00963C9.39993 6.60993 9.39999 6.23026 9.35713 5.91878C9.30924 5.57077 9.19409 5.18484 8.86716 4.86543C8.54024 4.54601 8.14523 4.43352 7.78904 4.38673C7.47023 4.34485 7.08163 4.34491 6.67252 4.34498L6.62392 4.34498Z" fill="#B3B3B3"/>
<path fill-rule="evenodd" clip-rule="evenodd" d="M6.62392 11.3794H6.17586L6.12725 11.3794C5.71815 11.3793 5.32954 11.3793 5.01073 11.4212C4.65454 11.4679 4.25954 11.5804 3.93261 11.8999C3.60568 12.2193 3.49053 12.6052 3.44265 12.9532C3.39978 13.2647 3.39985 13.6444 3.39991 14.0441L3.39992 14.0915V14.5293L3.39991 14.5768C3.39985 14.9765 3.39978 15.3562 3.44265 15.6677C3.49053 16.0157 3.60568 16.4016 3.93261 16.721C4.25954 17.0404 4.65454 17.1529 5.01073 17.1997C5.32954 17.2416 5.71814 17.2415 6.12725 17.2415H6.12726L6.17586 17.2415H6.62392L6.67251 17.2415H6.67252C7.08163 17.2415 7.47023 17.2416 7.78904 17.1997C8.14523 17.1529 8.54024 17.0404 8.86716 16.721C9.19409 16.4016 9.30924 16.0157 9.35713 15.6677C9.39999 15.3562 9.39993 14.9765 9.39986 14.5768V14.5768L9.39985 14.5293V14.0915L9.39986 14.0441V14.0441C9.39993 13.6444 9.39999 13.2647 9.35713 12.9532C9.30924 12.6052 9.19409 12.2193 8.86716 11.8999C8.54024 11.5804 8.14523 11.4679 7.78904 11.4212C7.47023 11.3793 7.08163 11.3793 6.67252 11.3794L6.62392 11.3794Z" fill="#B3B3B3"/>
<path fill-rule="evenodd" clip-rule="evenodd" d="M13.8241 4.34498H13.3761L13.3275 4.34498C12.9183 4.34491 12.5297 4.34485 12.2109 4.38673C11.8547 4.43352 11.4597 4.54601 11.1328 4.86543C10.8059 5.18484 10.6907 5.57077 10.6428 5.91878C10.6 6.23026 10.6 6.60993 10.6001 7.00964L10.6001 7.05712V7.49489L10.6001 7.54237C10.6 7.94208 10.6 8.32175 10.6428 8.63323C10.6907 8.98124 10.8059 9.36717 11.1328 9.68658C11.4597 10.006 11.8547 10.1185 12.2109 10.1653C12.5297 10.2072 12.9183 10.2071 13.3274 10.207H13.3275L13.3761 10.207H13.8241L13.8727 10.207H13.8727C14.2818 10.2071 14.6704 10.2072 14.9892 10.1653C15.3454 10.1185 15.7404 10.006 16.0674 9.68658C16.3943 9.36717 16.5094 8.98124 16.5573 8.63323C16.6002 8.32175 16.6001 7.94208 16.6001 7.54238V7.54237L16.6 7.49489V7.05712L16.6001 7.00964V7.00963C16.6001 6.60993 16.6002 6.23026 16.5573 5.91878C16.5094 5.57077 16.3943 5.18484 16.0674 4.86543C15.7404 4.54601 15.3454 4.43352 14.9892 4.38673C14.6704 4.34485 14.2818 4.34491 13.8727 4.34498L13.8241 4.34498Z" fill="#B3B3B3"/>
<path fill-rule="evenodd" clip-rule="evenodd" d="M13.8241 11.3794H13.3761L13.3275 11.3794C12.9183 11.3793 12.5297 11.3793 12.2109 11.4212C11.8547 11.4679 11.4597 11.5804 11.1328 11.8999C10.8059 12.2193 10.6907 12.6052 10.6428 12.9532C10.6 13.2647 10.6 13.6444 10.6001 14.0441L10.6001 14.0915V14.5293L10.6001 14.5768C10.6 14.9765 10.6 15.3562 10.6428 15.6677C10.6907 16.0157 10.8059 16.4016 11.1328 16.721C11.4597 17.0404 11.8547 17.1529 12.2109 17.1997C12.5297 17.2416 12.9183 17.2415 13.3274 17.2415H13.3275L13.3761 17.2415H13.8241L13.8727 17.2415H13.8727C14.2818 17.2415 14.6704 17.2416 14.9892 17.1997C15.3454 17.1529 15.7404 17.0404 16.0674 16.721C16.3943 16.4016 16.5094 16.0157 16.5573 15.6677C16.6002 15.3562 16.6001 14.9765 16.6001 14.5768V14.5768L16.6 14.5293V14.0915L16.6001 14.0441V14.0441C16.6001 13.6444 16.6002 13.2647 16.5573 12.9532C16.5094 12.6052 16.3943 12.2193 16.0674 11.8999C15.7404 11.5804 15.3454 11.4679 14.9892 11.4212C14.6704 11.3793 14.2818 11.3793 13.8727 11.3794L13.8241 11.3794Z" fill="#B3B3B3"/>
<path d="M16.6 2H17C17.9428 2 18.4142 2 18.7071 2.29289C19 2.58579 19 3.05719 19 4V4.93103" stroke="#B3B3B3" stroke-width="1.2" stroke-linecap="round"/>
<path d="M3.3999 2H2.99992C2.05711 2 1.58571 2 1.29281 2.29289C0.999919 2.58579 0.999919 3.05719 0.999919 4V4.93103" stroke="#B3B3B3" stroke-width="1.2" stroke-linecap="round"/>
<path d="M16.6 19H17C17.9428 19 18.4142 19 18.7071 18.7071C19 18.4142 19 17.9428 19 17V16.069" stroke="#B3B3B3" stroke-width="1.2" stroke-linecap="round"/>
<path d="M3.3999 19H2.99992C2.05711 19 1.58571 19 1.29281 18.7071C0.999919 18.4142 0.999919 17.9428 0.999919 17V16.069" stroke="#B3B3B3" stroke-width="1.2" stroke-linecap="round"/>
</svg>
