<svg width="20" height="20" viewBox="0 0 20 20" fill="none" xmlns="http://www.w3.org/2000/svg">
<path d="M4.21249 2.70469C4.15761 2.64282 4.09099 2.59246 4.01649 2.55652C3.942 2.52059 3.86111 2.4998 3.77853 2.49536C3.69594 2.49091 3.61329 2.50291 3.53537 2.53064C3.45746 2.55837 3.38582 2.6013 3.32461 2.65692C3.2634 2.71254 3.21384 2.77976 3.17881 2.85468C3.14377 2.9296 3.12395 3.01073 3.1205 3.09336C3.11704 3.176 3.13003 3.2585 3.15869 3.33608C3.18736 3.41366 3.23114 3.48478 3.28749 3.54531L4.79062 5.19922C1.95312 6.94062 0.732805 9.625 0.678899 9.74687C0.643362 9.82681 0.625 9.91331 0.625 10.0008C0.625 10.0883 0.643362 10.1748 0.678899 10.2547C0.706243 10.3164 1.36796 11.7836 2.83905 13.2547C4.79921 15.2141 7.27499 16.25 9.99999 16.25C11.4005 16.258 12.7868 15.9696 14.068 15.4039L15.7867 17.2953C15.8416 17.3572 15.9082 17.4075 15.9827 17.4435C16.0572 17.4794 16.1381 17.5002 16.2207 17.5046C16.3033 17.5091 16.3859 17.4971 16.4638 17.4694C16.5417 17.4416 16.6134 17.3987 16.6746 17.3431C16.7358 17.2875 16.7854 17.2202 16.8204 17.1453C16.8554 17.0704 16.8753 16.9893 16.8787 16.9066C16.8822 16.824 16.8692 16.7415 16.8405 16.6639C16.8118 16.5863 16.7681 16.5152 16.7117 16.4547L4.21249 2.70469ZM11.1656 12.2117C10.6754 12.4696 10.1134 12.5574 9.56783 12.4613C9.02229 12.3652 8.52413 12.0906 8.15157 11.6806C7.77901 11.2707 7.55314 10.7486 7.50945 10.1964C7.46575 9.6442 7.6067 9.09311 7.91015 8.62969L11.1656 12.2117ZM19.3211 10.2547C19.2883 10.3281 18.4969 12.0805 16.7148 13.6766C16.592 13.7868 16.4306 13.8439 16.2658 13.8356C16.101 13.8273 15.9462 13.7541 15.8351 13.632L7.92187 4.92734C7.84617 4.84427 7.79426 4.74233 7.77163 4.63224C7.74899 4.52215 7.75646 4.408 7.79325 4.3018C7.83004 4.1956 7.89478 4.10129 7.98066 4.02879C8.06654 3.95629 8.17038 3.90829 8.28124 3.88984C8.84934 3.79604 9.4242 3.74927 9.99999 3.75C12.725 3.75 15.2008 4.78594 17.1609 6.74609C18.632 8.21719 19.2937 9.68516 19.3211 9.74687C19.3566 9.82681 19.375 9.91331 19.375 10.0008C19.375 10.0883 19.3566 10.1748 19.3211 10.2547Z" fill="#B3B3B3"/>
</svg>
