<svg width="20" height="20" viewBox="0 0 20 20" fill="none" xmlns="http://www.w3.org/2000/svg">
<defs>
<clipPath id="clip0_642_60139">
<rect width="20" height="20" fill="white"/>
</clipPath>
</defs>
<g clip-path="url(#clip0_642_60139)">
<path fill-rule="evenodd" clip-rule="evenodd" d="M10 19.9998C15.5228 19.9998 20 15.5226 20 9.99976C20 4.47691 15.5228 -0.000244141 10 -0.000244141C4.47715 -0.000244141 0 4.47691 0 9.99976C0 15.5226 4.47715 19.9998 10 19.9998ZM6.1363 6.13617C6.42919 5.84328 6.90406 5.84328 7.19696 6.13617L10 8.93922L12.803 6.13617C13.0959 5.84328 13.5708 5.84328 13.8637 6.13617C14.1566 6.42907 14.1566 6.90394 13.8637 7.19683L11.0607 9.99988L13.8636 12.8028C14.1565 13.0957 14.1565 13.5706 13.8636 13.8635C13.5707 14.1564 13.0959 14.1564 12.803 13.8635L10 11.0605L7.19704 13.8635C6.90414 14.1564 6.42927 14.1564 6.13638 13.8635C5.84348 13.5706 5.84348 13.0957 6.13638 12.8028L8.93934 9.99988L6.1363 7.19683C5.8434 6.90394 5.8434 6.42907 6.1363 6.13617Z" fill="#B3B3B3"/>
</g>
</svg>
