<svg width="21" height="20" viewBox="0 0 21 20" fill="none" xmlns="http://www.w3.org/2000/svg">
<path fill-rule="evenodd" clip-rule="evenodd" d="M3.08579 2.58579C2.5 3.17157 2.5 4.11438 2.5 6V8C2.5 9.88562 2.5 10.8284 3.08579 11.4142C3.55733 11.8858 4.26022 11.9777 5.5 11.9957L5.49999 11.8912C5.49982 11.043 5.49966 10.2188 5.59106 9.53896C5.6941 8.77256 5.94514 7.898 6.67157 7.17157C7.398 6.44514 8.27256 6.1941 9.03896 6.09106C9.71879 5.99966 10.543 5.99982 11.3912 5.99999L11.5 6H12.5C12.5 4.11438 12.5 3.17157 11.9142 2.58579C11.3284 2 10.3856 2 8.5 2H6.5C4.61438 2 3.67157 2 3.08579 2.58579ZM12.5 8H11.5C9.61438 8 8.67157 8 8.08579 8.58579C7.5 9.17157 7.5 10.1144 7.5 12H8.5C10.3856 12 11.3284 12 11.9142 11.4142C12.5 10.8284 12.5 9.88562 12.5 8Z" fill="#222222"/>
<rect x="7.5" y="8" width="10" height="10" rx="2" fill="#222222"/>
</svg>
