<svg width="20" height="20" viewBox="0 0 20 20" fill="none" xmlns="http://www.w3.org/2000/svg">
<defs>
<clipPath id="clip0_761_159483">
<rect width="20" height="20" fill="white"/>
</clipPath>
</defs>
<g clip-path="url(#clip0_761_159483)">
<path fill-rule="evenodd" clip-rule="evenodd" d="M7.10713 2.29415e-05H8.09287C8.12858 2.29415e-05 8.16422 1.721e-05 8.19979 1.14785e-05C9.09984 -0.000134426 9.95477 -0.00027298 10.6562 0.0933331C11.4398 0.197915 12.3088 0.449375 13.0281 1.16333C13.7473 1.87729 14.0006 2.73991 14.106 3.51778C14.2003 4.21402 14.2001 5.06267 14.2 5.9561C14.2 5.99141 14.2 6.02678 14.2 6.06222V7.04072C14.2 7.07616 14.2 7.11153 14.2 7.14684C14.2001 8.04027 14.2003 8.88892 14.106 9.58516C14.0006 10.363 13.7473 11.2257 13.0281 11.9396C12.3088 12.6536 11.4398 12.905 10.6562 13.0096C9.95477 13.1032 9.09983 13.1031 8.19978 13.1029C8.16421 13.1029 8.12857 13.1029 8.09287 13.1029H7.10713C7.07143 13.1029 7.03579 13.1029 7.00022 13.1029C6.10017 13.1031 5.24523 13.1032 4.54384 13.0096C3.76021 12.905 2.8912 12.6536 2.17195 11.9396C1.4527 11.2257 1.19938 10.363 1.09402 9.58516C0.999725 8.88892 0.999865 8.04028 1.00001 7.14685C1.00002 7.11154 1.00002 7.07616 1.00002 7.04072V6.06223C1.00002 6.02678 1.00002 5.9914 1.00001 5.95609C0.999865 5.06266 0.999725 4.21402 1.09402 3.51778C1.19938 2.73991 1.4527 1.87729 2.17195 1.16333C2.8912 0.449375 3.76021 0.197915 4.54384 0.0933331C5.24523 -0.00027298 6.10016 -0.000134426 7.00021 1.14785e-05C7.03578 1.721e-05 7.07142 2.29415e-05 7.10713 2.29415e-05ZM3.51214 2.49366C2.89533 3.10593 2.89533 4.09136 2.89533 6.06223V7.04072C2.89533 9.01158 2.89533 9.99701 3.51214 10.6093C4.12894 11.2215 5.12167 11.2215 7.10713 11.2215H8.09287C10.0783 11.2215 11.0711 11.2215 11.6879 10.6093C12.3047 9.99701 12.3047 9.01158 12.3047 7.04072V6.06222C12.3047 4.09136 12.3047 3.10593 11.6879 2.49366C11.0711 1.8814 10.0783 1.8814 8.09287 1.8814H7.10713C5.12167 1.8814 4.12894 1.8814 3.51214 2.49366Z" fill="#B3B3B3"/>
<path fill-rule="evenodd" clip-rule="evenodd" d="M6.01345 11.4982C5.99985 11.9271 5.99992 12.3839 6 12.8532L6.00001 12.9593V13.9378L6 14.0439C5.99985 14.9374 5.99971 15.786 6.09401 16.4822C6.19937 17.2601 6.45269 18.1227 7.17194 18.8367C7.89118 19.5506 8.7602 19.8021 9.54383 19.9067C10.2452 20.0003 11.1002 20.0001 12.0002 20L12.1071 20H13.0929L13.1998 20C14.0998 20.0001 14.9548 20.0003 15.6561 19.9067C16.4398 19.8021 17.3088 19.5506 18.028 18.8367C18.7473 18.1227 19.0006 17.2601 19.106 16.4822C19.2003 15.786 19.2001 14.9374 19.2 14.0439L19.2 13.9378V12.9593L19.2 12.8532C19.2001 11.9597 19.2003 11.1111 19.106 10.4149C19.0006 9.63698 18.7473 8.77436 18.028 8.0604C17.3088 7.34645 16.4398 7.09499 15.6561 6.9904C14.9548 6.8968 14.0998 6.89694 13.1998 6.89708L13.0929 6.89709H12.6V7.39968C12.6 7.92556 12.6 8.38128 12.5883 8.77847H13.0929C15.0783 8.77847 16.071 8.77847 16.6879 9.39074C17.3047 10.003 17.3047 10.9884 17.3047 12.9593V13.9378C17.3047 15.9086 17.3047 16.8941 16.6879 17.5063C16.071 18.1186 15.0783 18.1186 13.0929 18.1186H12.1071C10.1217 18.1186 9.12893 18.1186 8.51212 17.5063C7.89532 16.8941 7.89532 15.9086 7.89532 13.9378V12.9593C7.89532 12.4334 7.89532 11.9777 7.90704 11.5805H6.01345V11.4982Z" fill="#B3B3B3"/>
</g>
</svg>
