<svg width="20" height="20" viewBox="0 0 20 20" fill="none" xmlns="http://www.w3.org/2000/svg">
<path fill-rule="evenodd" clip-rule="evenodd" d="M2.58579 2.58579C2 3.17157 2 4.11438 2 6V8C2 9.88562 2 10.8284 2.58579 11.4142C3.05733 11.8858 3.76022 11.9777 5 11.9957L4.99999 11.8912C4.99982 11.043 4.99966 10.2188 5.09106 9.53896C5.1941 8.77256 5.44514 7.898 6.17157 7.17157C6.898 6.44514 7.77256 6.1941 8.53896 6.09106C9.21879 5.99966 10.043 5.99982 10.8912 5.99999L11 6H12C12 4.11438 12 3.17157 11.4142 2.58579C10.8284 2 9.88562 2 8 2H6C4.11438 2 3.17157 2 2.58579 2.58579ZM12 8H11C9.11438 8 8.17157 8 7.58579 8.58579C7 9.17157 7 10.1144 7 12H8C9.88562 12 10.8284 12 11.4142 11.4142C12 10.8284 12 9.88562 12 8Z" fill="#B3B3B3"/>
<rect x="7" y="8" width="10" height="10" rx="2" fill="#B3B3B3"/>
</svg>
