<svg width="20" height="20" viewBox="0 0 20 20" fill="none" xmlns="http://www.w3.org/2000/svg">
<path d="M10.0041 2C11.7077 2.01696 13.3738 2.26092 14.9626 2.94321C15.8388 3.31893 16.644 3.81271 17.2924 4.5635C18.2242 5.64303 18.2267 7.04806 17.2992 8.12825C16.6619 8.86991 15.8728 9.36369 15.0095 9.7381C13.3799 10.4452 11.6707 10.7041 9.9207 10.6989C8.45353 10.6944 7.0129 10.4843 5.61797 9.98728C4.67999 9.65265 3.79758 9.20453 3.05103 8.49941C2.71803 8.19837 2.44513 7.83027 2.24828 7.41661C1.80986 6.44926 1.9809 5.42191 2.68979 4.58893C3.34125 3.82184 4.1582 3.32088 5.0474 2.9406C6.63499 2.26092 8.301 2.01631 10.0041 2Z" fill="#B3B3B3"/>
<path d="M17.8224 13.7539C18.0694 14.3938 18.0521 14.9887 17.8143 15.5738C17.5402 16.2502 17.0653 16.7525 16.5071 17.1706C15.3956 18.0042 14.1328 18.4523 12.8077 18.7152C10.6359 19.1464 8.47219 19.0975 6.33009 18.5065C5.15066 18.1803 4.03978 17.6944 3.10242 16.8418C2.65844 16.4368 2.29658 15.9645 2.11442 15.3644C1.94847 14.8411 1.97045 14.2716 2.17617 13.7643C2.262 13.9261 2.32561 14.0631 2.40341 14.1896C2.92582 15.0376 3.68966 15.5816 4.53317 16.0121C5.73235 16.624 7.00995 16.939 8.3277 17.0943C9.99868 17.2982 11.6904 17.1983 13.3294 16.7988C14.3792 16.5379 15.3857 16.153 16.2934 15.5249C16.9301 15.0839 17.4729 14.5484 17.8224 13.7539Z" fill="#B3B3B3"/>
<path d="M17.824 9.60547C18.1241 10.4417 18.0192 11.1749 17.5925 11.8656C17.0874 12.683 16.3575 13.2205 15.543 13.6334C13.5052 14.6679 11.3341 14.9379 9.10248 14.8218C7.9259 14.7674 6.76214 14.5409 5.64449 14.1487C4.53299 13.7514 3.48757 13.2198 2.69408 12.2662C2.11919 11.576 1.84255 10.7874 2.09202 9.86051C2.11054 9.79007 2.1371 9.72223 2.17106 9.62047C2.25751 9.78289 2.32234 9.91857 2.39953 10.0458C2.91885 10.8996 3.68269 11.4404 4.52558 11.8722C5.89952 12.5721 7.36608 12.8917 8.87648 13.0098C10.3779 13.1357 11.8888 13.0149 13.3552 12.6517C14.4179 12.3849 15.4325 11.9909 16.3476 11.3471C16.9676 10.9048 17.4912 10.3765 17.824 9.60547Z" fill="#B3B3B3"/>
</svg>
