<svg width="21" height="20" viewBox="0 0 21 20" fill="none" xmlns="http://www.w3.org/2000/svg">
<defs>
<clipPath id="clip0_2857_46608">
<rect width="20" height="20" fill="white" transform="translate(0.5)"/>
</clipPath>
</defs>
<g clip-path="url(#clip0_2857_46608)">
<path d="M16.8066 6.80501L15.9319 7.28959L15.9319 7.28959L16.8066 6.80501ZM16.7518 6.70606L17.6265 6.22149L17.6265 6.22148L16.7518 6.70606ZM17.4396 7.45453L17.9414 6.58953L17.9414 6.58953L17.4396 7.45453ZM18.7324 8.20446L19.2342 7.33946L18.7324 8.20446ZM19.1607 8.96195L20.1607 8.95977V8.95977L19.1607 8.96195ZM19.1667 11.7011L18.1667 11.7033V11.7033L19.1667 11.7011ZM18.7372 12.4632L18.2369 11.5974L18.2369 11.5974L18.7372 12.4632ZM17.4413 13.2121L17.9416 14.0779L17.9416 14.0779L17.4413 13.2121ZM16.8059 13.863L15.9311 13.3784L15.9311 13.3784L16.8059 13.863ZM16.7518 13.9606L17.6265 14.4452L17.6265 14.4452L16.7518 13.9606ZM16.5285 14.8592L15.5287 14.8754V14.8754L16.5285 14.8592ZM16.5535 16.407L17.5534 16.3909L16.5535 16.407ZM16.1385 17.1733L15.6208 16.3177L15.6208 16.3177L16.1385 17.1733ZM13.8649 18.5492L14.3827 19.4048L13.8649 18.5492ZM13.0176 18.5427L13.5482 17.6951L13.5482 17.6951L13.0176 18.5427ZM11.7457 17.7465L12.2763 16.8989H12.2763L11.7457 17.7465ZM9.92161 17.7455L10.4512 18.5937L10.4512 18.5937L9.92161 17.7455ZM8.65554 18.5359L8.12593 17.6877H8.12593L8.65554 18.5359ZM7.81126 18.5433L8.32631 17.6862L8.32631 17.6862L7.81126 18.5433ZM5.53043 17.1728L5.01537 18.03H5.01537L5.53043 17.1728ZM5.11323 16.4051L6.11309 16.4213L5.11323 16.4051ZM5.13817 14.8642L4.1383 14.848V14.848L5.13817 14.8642ZM4.91818 13.9714L5.79479 13.4902L5.79479 13.4902L4.91818 13.9714ZM4.86024 13.8658L3.98363 14.347L3.98363 14.347L4.86024 13.8658ZM4.22393 13.2103L3.72215 14.0753H3.72215L4.22393 13.2103ZM2.93424 12.4622L2.43246 13.3272L2.43246 13.3272L2.93424 12.4622ZM2.50597 11.7047L3.50597 11.7025L2.50597 11.7047ZM2.5 8.96556L3.5 8.96338L2.5 8.96556ZM2.92946 8.20344L3.42979 9.06927L3.42979 9.06927L2.92946 8.20344ZM4.22537 7.45459L3.72505 6.58875L3.72505 6.58875L4.22537 7.45459ZM4.86079 6.80369L3.98605 6.3191L3.98604 6.31911L4.86079 6.80369ZM4.91487 6.70607L5.78962 7.19065L5.78962 7.19065L4.91487 6.70607ZM5.13814 5.80742L4.13827 5.82355V5.82355L5.13814 5.80742ZM5.11317 4.25968L6.11304 4.24355L5.11317 4.25968ZM5.52813 3.49342L6.04589 4.34894V4.34894L5.52813 3.49342ZM7.80175 2.11742L8.31952 2.97295L8.31952 2.97295L7.80175 2.11742ZM8.64911 2.12396L8.11849 2.97158V2.97158L8.64911 2.12396ZM9.921 2.92018L10.4516 2.07257V2.07257L9.921 2.92018ZM11.7451 2.92122L12.2747 3.76946L12.2747 3.76946L11.7451 2.92122ZM13.0111 2.13072L12.4815 1.28248V1.28248L13.0111 2.13072ZM13.8554 2.12335L14.3705 1.26619V1.26619L13.8554 2.12335ZM16.1363 3.49388L15.6212 4.35104L15.6212 4.35104L16.1363 3.49388ZM16.5535 4.2615L15.5536 4.24536V4.24536L16.5535 4.2615ZM16.5285 5.80742L15.5287 5.79129V5.79129L16.5285 5.80742ZM17.6814 6.32043L17.6265 6.22149L15.877 7.19064L15.9319 7.28959L17.6814 6.32043ZM17.9414 6.58953C17.8379 6.5295 17.7465 6.43806 17.6814 6.32043L15.9319 7.28959C16.1683 7.71639 16.5144 8.0739 16.9379 8.31953L17.9414 6.58953ZM19.2342 7.33946L17.9414 6.58953L16.9379 8.31953L18.2307 9.06946L19.2342 7.33946ZM20.1607 8.95977C20.1593 8.30337 19.8177 7.67793 19.2342 7.33946L18.2307 9.06946C18.1747 9.037 18.1608 8.99106 18.1607 8.96413L20.1607 8.95977ZM20.1667 11.6989L20.1607 8.95977L18.1607 8.96413L18.1667 11.7033L20.1667 11.6989ZM19.2375 13.3291C19.8252 12.9895 20.1681 12.3593 20.1667 11.6989L18.1667 11.7033C18.1666 11.6763 18.1805 11.63 18.2369 11.5974L19.2375 13.3291ZM17.9416 14.0779L19.2375 13.3291L18.2369 11.5974L16.941 12.3462L17.9416 14.0779ZM17.6806 14.3476C17.746 14.2296 17.8378 14.1379 17.9416 14.0779L16.941 12.3462C16.5158 12.5919 16.1683 12.9503 15.9311 13.3784L17.6806 14.3476ZM17.6265 14.4452L17.6806 14.3476L15.9311 13.3784L15.877 13.476L17.6265 14.4452ZM17.5284 14.8431C17.5261 14.7011 17.5611 14.5634 17.6265 14.4452L15.8771 13.476C15.6402 13.9036 15.5208 14.3872 15.5287 14.8754L17.5284 14.8431ZM17.5534 16.3909L17.5284 14.8431L15.5287 14.8754L15.5536 16.4231L17.5534 16.3909ZM16.6563 18.0288C17.2335 17.6795 17.564 17.0477 17.5534 16.3909L15.5536 16.4231C15.5532 16.3962 15.5662 16.3508 15.6208 16.3177L16.6563 18.0288ZM14.3827 19.4048L16.6563 18.0288L15.6208 16.3177L13.3472 17.6937L14.3827 19.4048ZM12.4869 19.3903C13.0669 19.7534 13.797 19.7592 14.3827 19.4048L13.3472 17.6937C13.4078 17.657 13.4887 17.6578 13.5482 17.6951L12.4869 19.3903ZM11.2151 18.5941L12.4869 19.3903L13.5482 17.6951L12.2763 16.8989L11.2151 18.5941ZM10.8877 18.4986C11 18.4986 11.113 18.5302 11.2151 18.5941L12.2763 16.8989C11.86 16.6383 11.3799 16.4986 10.8877 16.4986V18.4986ZM10.7779 18.4986H10.8877V16.4986H10.7779V18.4986ZM10.4512 18.5937C10.5531 18.5301 10.6658 18.4986 10.7779 18.4986V16.4986C10.2868 16.4986 9.80768 16.6377 9.392 16.8972L10.4512 18.5937ZM9.18516 19.3842L10.4512 18.5937L9.392 16.8972L8.12593 17.6877L9.18516 19.3842ZM7.2962 19.4005C7.88057 19.7516 8.60722 19.745 9.18516 19.3842L8.12593 17.6877C8.18521 17.6507 8.26572 17.6497 8.32631 17.6862L7.2962 19.4005ZM5.01537 18.03L7.29621 19.4005L8.32631 17.6862L6.04548 16.3156L5.01537 18.03ZM4.11336 16.389C4.10269 17.0478 4.43524 17.6814 5.01537 18.03L6.04548 16.3156C6.10048 16.3487 6.11353 16.3944 6.11309 16.4213L4.11336 16.389ZM4.1383 14.848L4.11336 16.389L6.11309 16.4213L6.13804 14.8803L4.1383 14.848ZM4.04157 14.4526C4.10616 14.5702 4.14059 14.707 4.1383 14.848L6.13804 14.8803C6.14589 14.3957 6.02831 13.9156 5.79479 13.4902L4.04157 14.4526ZM3.98363 14.347L4.04157 14.4526L5.79479 13.4902L5.73685 13.3846L3.98363 14.347ZM3.72215 14.0753C3.82641 14.1358 3.91839 14.2282 3.98363 14.347L5.73685 13.3846C5.50034 12.9537 5.15227 12.5928 4.7257 12.3453L3.72215 14.0753ZM2.43246 13.3272L3.72215 14.0753L4.7257 12.3453L3.43601 11.5972L2.43246 13.3272ZM1.50597 11.7069C1.5074 12.3633 1.84898 12.9887 2.43246 13.3272L3.43601 11.5972C3.49197 11.6297 3.50591 11.6756 3.50597 11.7025L1.50597 11.7069ZM1.5 8.96774L1.50597 11.7069L3.50597 11.7025L3.5 8.96338L1.5 8.96774ZM2.42913 7.3376C1.84149 7.67717 1.49857 8.30742 1.5 8.96774L3.5 8.96338C3.50006 8.9904 3.4862 9.03668 3.42979 9.06927L2.42913 7.3376ZM3.72505 6.58875L2.42913 7.3376L3.42979 9.06927L4.7257 8.32042L3.72505 6.58875ZM3.98604 6.31911C3.92068 6.4371 3.82891 6.52873 3.72505 6.58875L4.7257 8.32042C5.15085 8.07475 5.49838 7.71638 5.73554 7.28827L3.98604 6.31911ZM4.04013 6.22148L3.98605 6.3191L5.73554 7.28827L5.78962 7.19065L4.04013 6.22148ZM4.13827 5.82355C4.14056 5.96556 4.1056 6.10329 4.04012 6.22148L5.78962 7.19065C6.0265 6.76303 6.14589 6.27951 6.13801 5.79128L4.13827 5.82355ZM4.1133 4.27582L4.13827 5.82355L6.13801 5.79129L6.11304 4.24355L4.1133 4.27582ZM5.01037 2.63789C4.43321 2.98719 4.1027 3.61901 4.1133 4.27582L6.11304 4.24355C6.11347 4.27042 6.10049 4.3159 6.04589 4.34894L5.01037 2.63789ZM7.28399 1.2619L5.01037 2.63789L6.04589 4.34894L8.31952 2.97295L7.28399 1.2619ZM9.17972 1.27635C8.59975 0.913285 7.86968 0.907441 7.28399 1.2619L8.31952 2.97295C8.25887 3.00966 8.17799 3.00882 8.11849 2.97158L9.17972 1.27635ZM10.4516 2.07257L9.17972 1.27635L8.11849 2.97158L9.39038 3.76779L10.4516 2.07257ZM10.779 2.16811C10.6667 2.16811 10.5536 2.13643 10.4516 2.07257L9.39038 3.76779C9.80666 4.02839 10.2868 4.16811 10.779 4.16811V2.16811ZM10.8887 2.16811H10.779V4.16811H10.8887V2.16811ZM11.2154 2.07298C11.1136 2.13656 11.0008 2.16811 10.8887 2.16811V4.16811C11.3799 4.16811 11.859 4.02899 12.2747 3.76946L11.2154 2.07298ZM12.4815 1.28248L11.2154 2.07298L12.2747 3.76946L13.5407 2.97896L12.4815 1.28248ZM14.3705 1.26619C13.7861 0.91506 13.0595 0.921638 12.4815 1.28248L13.5407 2.97896C13.4815 3.01598 13.4009 3.01692 13.3404 2.98051L14.3705 1.26619ZM16.6513 2.63672L14.3705 1.26619L13.3404 2.98051L15.6212 4.35104L16.6513 2.63672ZM17.5533 4.27763C17.564 3.61885 17.2314 2.98529 16.6513 2.63672L15.6212 4.35104C15.5662 4.31799 15.5532 4.27228 15.5536 4.24536L17.5533 4.27763ZM17.5284 5.82355L17.5533 4.27763L15.5536 4.24536L15.5287 5.79129L17.5284 5.82355ZM17.6265 6.22148C17.5611 6.10329 17.5261 5.96556 17.5284 5.82355L15.5287 5.79129C15.5208 6.27951 15.6402 6.76303 15.8771 7.19065L17.6265 6.22148ZM10.8333 14.4583C13.1115 14.4583 14.9583 12.6115 14.9583 10.3333H12.9583C12.9583 11.5069 12.0069 12.4583 10.8333 12.4583V14.4583ZM6.70833 10.3333C6.70833 12.6115 8.55516 14.4583 10.8333 14.4583V12.4583C9.65973 12.4583 8.70833 11.5069 8.70833 10.3333H6.70833ZM10.8333 6.20833C8.55516 6.20833 6.70833 8.05516 6.70833 10.3333H8.70833C8.70833 9.15973 9.65973 8.20833 10.8333 8.20833V6.20833ZM14.9583 10.3333C14.9583 8.05516 13.1115 6.20833 10.8333 6.20833V8.20833C12.0069 8.20833 12.9583 9.15973 12.9583 10.3333H14.9583Z" fill="#B3B3B3"/>
</g>
</svg>
