<svg width="24" height="24" viewBox="0 0 24 24" fill="none" xmlns="http://www.w3.org/2000/svg">
<g clip-path="url(#clip0_1151_220709)">
<path fill-rule="evenodd" clip-rule="evenodd" d="M6.55263 12C6.55263 13.6569 5.1977 15 3.52632 15C1.85493 15 0.5 13.6569 0.5 12C0.5 10.3431 1.85493 9 3.52632 9C5.1977 9 6.55263 10.3431 6.55263 12ZM15.0263 12C15.0263 13.6569 13.6714 15 12 15C10.3286 15 8.97368 13.6569 8.97368 12C8.97368 10.3431 10.3286 9 12 9C13.6714 9 15.0263 10.3431 15.0263 12ZM20.4737 15C22.1451 15 23.5 13.6569 23.5 12C23.5 10.3431 22.1451 9 20.4737 9C18.8023 9 17.4474 10.3431 17.4474 12C17.4474 13.6569 18.8023 15 20.4737 15Z" fill="#B3B3B3"/>
</g>
<defs>
<clipPath id="clip0_1151_220709">
<rect width="24" height="24" fill="white"/>
</clipPath>
</defs>
</svg>
