<svg width="20" height="20" viewBox="0 0 20 20" fill="none" xmlns="http://www.w3.org/2000/svg">
<path d="M4 19H17" stroke="#B3B3B3" stroke-width="2" stroke-linecap="round"/>
<path d="M15.1966 2.28741C13.66 0.992571 11.8423 0.611145 11.1493 1.43422L9.83374 2.99004L15.4376 7.65748L16.7231 6.14182C17.4261 5.31874 16.7432 3.59229 15.2066 2.29745L15.1966 2.28741Z" fill="#B3B3B3"/>
<path d="M8.89986 4.09399L3.61736 10.3474C3.29599 10.7288 3.12527 10.9295 3.05497 11.1805C2.98467 11.4314 2.99471 11.7426 3.0148 12.3549L3.09514 14.3724C3.13531 15.3059 3.15539 15.7777 3.53702 16.1089C3.91864 16.4401 4.39065 16.3699 5.32463 16.2494L7.32314 15.9885C7.93575 15.9082 8.23703 15.868 8.47806 15.7476C8.71909 15.6271 8.87977 15.4364 9.20114 15.055L14.5138 8.76144L8.9099 4.09399H8.89986Z" fill="#B3B3B3"/>
</svg>
