<svg width="20" height="20" viewBox="0 0 20 20" fill="none" xmlns="http://www.w3.org/2000/svg">
<path d="M8.59296 3.1709H7.12785C3.4651 3.1709 2 4.65382 2 8.36111V12.8099C2 16.5172 3.4651 18.0001 7.12785 18.0001H11.5232C15.1859 18.0001 16.651 16.5172 16.651 12.8099V11.327" stroke="#B3B3B3" stroke-width="1.8" stroke-linecap="round" stroke-linejoin="round"/>
<path d="M13.4499 2.94256L7.67743 8.78526C7.45766 9.0077 7.2379 9.44516 7.19394 9.76399L6.87895 11.9958C6.76174 12.804 7.3258 13.3675 8.12428 13.2563L10.3293 12.9374C10.6369 12.893 11.0691 12.6705 11.2962 12.4481L17.0687 6.60537C18.065 5.59699 18.5338 4.42548 17.0687 2.94256C15.6036 1.45965 14.4462 1.93418 13.4499 2.94256Z" stroke="#B3B3B3" stroke-width="1.8" stroke-miterlimit="10" stroke-linecap="round" stroke-linejoin="round"/>
<path d="M12.6222 3.78027C13.113 5.55236 14.4829 6.93889 16.241 7.44308" stroke="#B3B3B3" stroke-width="1.8" stroke-miterlimit="10" stroke-linecap="round" stroke-linejoin="round"/>
</svg>
