<svg width="20" height="20" viewBox="0 0 20 20" fill="none" xmlns="http://www.w3.org/2000/svg">
<path d="M8 9.99975L19 9.99975M19 9.99975L15 5.99976M19 9.99975L15 13.9998" stroke="#B3B3B3" stroke-width="2" stroke-linecap="round" stroke-linejoin="round"/>
<path d="M9 4.99976V3.99976C9 3.05695 9 2.58554 8.70711 2.29265C8.41421 1.99976 7.94281 1.99976 7 1.99976H3C2.05719 1.99976 1.58579 1.99976 1.29289 2.29265C1 2.58554 1 3.05695 1 3.99976V15.9998C1 16.9426 1 17.414 1.29289 17.7069C1.58579 17.9998 2.05719 17.9998 3 17.9998H7C7.94281 17.9998 8.41421 17.9998 8.70711 17.7069C9 17.414 9 16.9426 9 15.9998V14.9998" stroke="#B3B3B3" stroke-width="2" stroke-linecap="round" stroke-linejoin="round"/>
</svg>
