<svg width="72" height="72" viewBox="0 0 72 72" fill="none" xmlns="http://www.w3.org/2000/svg">
<path d="M1.43612 22.4733C2.36765 22.4733 2.87224 21.9299 2.87224 20.9984V10.5574C2.87224 5.51159 5.51159 2.87224 10.5574 2.87224H21.0372C21.9687 2.87224 22.5121 2.36765 22.5121 1.43612C22.5121 0.504582 21.9687 0 21.0372 0H10.4798C3.6097 0 0 3.57089 0 10.4022V20.9984C0 21.9299 0.504582 22.4733 1.43612 22.4733ZM70.5639 22.4733C71.4954 22.4733 72 21.9299 72 20.9984V10.4022C72 3.64852 68.4291 0 61.559 0H50.9628C50.0313 0 49.4879 0.504582 49.4879 1.43612C49.4879 2.36765 50.0313 2.87224 50.9628 2.87224H61.4426C66.3332 2.87224 69.1278 5.51159 69.1278 10.5574V20.9984C69.1278 21.9299 69.6323 22.4733 70.5639 22.4733ZM32.8367 41.2205H33.186C36.3299 41.2205 37.9213 39.6679 37.9213 36.4852V24.5693C37.9213 23.6765 37.4943 23.2496 36.6016 23.2496C35.7477 23.2496 35.2819 23.6765 35.2819 24.5693V36.8345C35.2819 37.8825 34.428 38.5423 33.5741 38.5423H32.2544C31.517 38.5423 30.9736 39.0857 30.9736 39.8232C30.9736 40.7547 31.5558 41.2205 32.8367 41.2205ZM22.0464 32.2933C23.2108 32.2933 23.9482 31.5558 23.9482 30.3914V25.2291C23.9482 24.0259 23.2108 23.2884 22.0464 23.2884C20.9208 23.2884 20.1833 24.0647 20.1833 25.2291V30.3914C20.1833 31.5558 20.9208 32.2933 22.0464 32.2933ZM49.6043 32.2933C50.7299 32.2933 51.4674 31.5558 51.4674 30.3914V25.2291C51.4674 24.0647 50.7299 23.2884 49.6043 23.2884C48.4399 23.2884 47.6636 24.0259 47.6636 25.2291V30.3914C47.6636 31.5558 48.4399 32.2933 49.6043 32.2933ZM35.6701 53.0976C39.9396 53.0976 44.2092 51.3121 47.3531 48.1682C47.586 47.9741 47.8189 47.6248 47.8189 47.1202C47.8189 46.3439 47.2367 45.8394 46.538 45.8394C46.111 45.8394 45.7617 45.9558 45.2571 46.4992C42.9283 48.828 39.3186 50.497 35.6701 50.497C32.0216 50.497 28.4507 48.828 26.083 46.4992C25.6172 45.9946 25.2679 45.8394 24.8022 45.8394C24.1035 45.8394 23.5213 46.3439 23.5213 47.1202C23.5213 47.586 23.7542 47.9353 23.9871 48.1682C27.0534 51.3509 31.4005 53.0976 35.6701 53.0976ZM10.4798 72H21.0372C21.9687 72 22.5121 71.4954 22.5121 70.5639C22.5121 69.6323 21.9687 69.1278 21.0372 69.1278H10.5574C5.51159 69.1278 2.87224 66.4884 2.87224 61.4038V51.0016C2.87224 50.0701 2.36765 49.4879 1.43612 49.4879C0.504582 49.4879 0 50.0701 0 51.0016V61.559C0 68.4291 3.6097 72 10.4798 72ZM50.9628 72H61.559C68.4291 72 72 68.3127 72 61.559V51.0016C72 50.0701 71.4954 49.4879 70.5639 49.4879C69.6323 49.4879 69.1278 50.0701 69.1278 51.0016V61.4038C69.1278 66.4884 66.3332 69.1278 61.4426 69.1278H50.9628C50.0313 69.1278 49.4879 69.6323 49.4879 70.5639C49.4879 71.4954 50.0313 72 50.9628 72Z" fill="#B3B3B3"/>
</svg>
