<svg width="73" height="72" viewBox="0 0 73 72" fill="none" xmlns="http://www.w3.org/2000/svg">
<path d="M1.93612 22.4733C2.86765 22.4733 3.37224 21.9299 3.37224 20.9984V10.5574C3.37224 5.51159 6.01159 2.87224 11.0574 2.87224H21.5372C22.4687 2.87224 23.0121 2.36765 23.0121 1.43612C23.0121 0.504582 22.4687 0 21.5372 0H10.9798C4.1097 0 0.5 3.57089 0.5 10.4022V20.9984C0.5 21.9299 1.00458 22.4733 1.93612 22.4733ZM71.0639 22.4733C71.9954 22.4733 72.5 21.9299 72.5 20.9984V10.4022C72.5 3.64852 68.9291 0 62.059 0H51.4628C50.5313 0 49.9879 0.504582 49.9879 1.43612C49.9879 2.36765 50.5313 2.87224 51.4628 2.87224H61.9426C66.8332 2.87224 69.6278 5.51159 69.6278 10.5574V20.9984C69.6278 21.9299 70.1323 22.4733 71.0639 22.4733ZM33.3367 41.2205H33.686C36.8299 41.2205 38.4213 39.6679 38.4213 36.4852V24.5693C38.4213 23.6765 37.9943 23.2496 37.1016 23.2496C36.2477 23.2496 35.7819 23.6765 35.7819 24.5693V36.8345C35.7819 37.8825 34.928 38.5423 34.0741 38.5423H32.7544C32.017 38.5423 31.4736 39.0857 31.4736 39.8232C31.4736 40.7547 32.0558 41.2205 33.3367 41.2205ZM22.5464 32.2933C23.7108 32.2933 24.4482 31.5558 24.4482 30.3914V25.2291C24.4482 24.0259 23.7108 23.2884 22.5464 23.2884C21.4208 23.2884 20.6833 24.0647 20.6833 25.2291V30.3914C20.6833 31.5558 21.4208 32.2933 22.5464 32.2933ZM50.1043 32.2933C51.2299 32.2933 51.9674 31.5558 51.9674 30.3914V25.2291C51.9674 24.0647 51.2299 23.2884 50.1043 23.2884C48.9399 23.2884 48.1636 24.0259 48.1636 25.2291V30.3914C48.1636 31.5558 48.9399 32.2933 50.1043 32.2933ZM36.1701 53.0976C40.4396 53.0976 44.7092 51.3121 47.8531 48.1682C48.086 47.9741 48.3189 47.6248 48.3189 47.1202C48.3189 46.3439 47.7367 45.8394 47.038 45.8394C46.611 45.8394 46.2617 45.9558 45.7571 46.4992C43.4283 48.828 39.8186 50.497 36.1701 50.497C32.5216 50.497 28.9507 48.828 26.583 46.4992C26.1172 45.9946 25.7679 45.8394 25.3022 45.8394C24.6035 45.8394 24.0213 46.3439 24.0213 47.1202C24.0213 47.586 24.2542 47.9353 24.4871 48.1682C27.5534 51.3509 31.9005 53.0976 36.1701 53.0976ZM10.9798 72H21.5372C22.4687 72 23.0121 71.4954 23.0121 70.5639C23.0121 69.6323 22.4687 69.1278 21.5372 69.1278H11.0574C6.01159 69.1278 3.37224 66.4884 3.37224 61.4038V51.0016C3.37224 50.0701 2.86765 49.4879 1.93612 49.4879C1.00458 49.4879 0.5 50.0701 0.5 51.0016V61.559C0.5 68.4291 4.1097 72 10.9798 72ZM51.4628 72H62.059C68.9291 72 72.5 68.3127 72.5 61.559V51.0016C72.5 50.0701 71.9954 49.4879 71.0639 49.4879C70.1323 49.4879 69.6278 50.0701 69.6278 51.0016V61.4038C69.6278 66.4884 66.8332 69.1278 61.9426 69.1278H51.4628C50.5313 69.1278 49.9879 69.6323 49.9879 70.5639C49.9879 71.4954 50.5313 72 51.4628 72Z" fill="#222222"/>
</svg>
