<svg width="72" height="72" viewBox="0 0 72 72" fill="none" xmlns="http://www.w3.org/2000/svg">
  <path d="M18.2 11.8c.26.19.56.29.88.29h.5v-.11c.11-.04.22-.09.32-.16a29 29 0 0 1 32.11-.03c.16.11.34.18.54.22a1.46 1.46 0 0 0 1.52-.63c.11-.16.18-.34.22-.54.04-.19.04-.39 0-.58a1.58 1.58 0 0 0-.22-.54 1.6 1.6 0 0 0-.41-.41A31.91 31.91 0 0 0 36.01 4h-.06a31.92 31.92 0 0 0-17.69 5.37 1.48 1.48 0 0 0-.06 2.42v.01Zm47.29 11.71a31.6 31.6 0 0 0-7.2-10.49 1.6 1.6 0 0 0-1.07-.41 1.5 1.5 0 0 0-1.45 1.53c0 .4.17.77.46 1.04a28.66 28.66 0 0 1 8.81 20.8c0 .39.16.77.43 1.05.28.28.66.43 1.05.43s.77-.15 1.05-.43.43-.66.43-1.05c.01-4.31-.83-8.51-2.51-12.47ZM14.45 47.87c-.03-.2-.1-.39-.2-.56-.1-.17-.24-.32-.41-.44a1.47 1.47 0 0 0-1.14-.24c-.2.04-.38.12-.56.23a1.52 1.52 0 0 0-.62.99c-.03.2-.02.4.02.57 1.12 5.77 3.03 10.29 5.66 13.43a1.52 1.52 0 0 0 1.13.51h.02a1.46 1.46 0 0 0 1.33-.85c.12-.26.16-.54.13-.82a1.53 1.53 0 0 0-.33-.76c-2.31-2.77-4-6.84-5.02-12.06h-.01Zm-2.43-6.52h.06a1.49 1.49 0 0 0 1.4-1.56c-.09-1.77-.09-3.11-.09-3.75a22.78 22.78 0 0 1 13.19-20.61 1.5 1.5 0 0 0 .67-1.94 1.45 1.45 0 0 0-.8-.76 1.52 1.52 0 0 0-1.13.01A25.65 25.65 0 0 0 10.4 35.98c0 .68 0 2.1.1 3.96a1.5 1.5 0 0 0 1.48 1.4h.04v.01Z" fill="#B3B3B3"/>
  <path d="M64.44 45.19c-2.54-1.67-2.87-5.79-2.87-9.19a25.4 25.4 0 0 0-7.5-18.1 25.4 25.4 0 0 0-18.1-7.5 1.47 1.47 0 0 0-1.48 1.48 1.48 1.48 0 0 0 1.48 1.49c6.04 0 11.73 2.35 16 6.63a22.5 22.5 0 0 1 6.63 16c0 4.15.48 9.22 4.19 11.67.24.17.52.26.82.26a1.47 1.47 0 0 0 1.42-1.05c.09-.31.08-.63-.02-.93-.11-.3-.31-.56-.58-.74l.01-.02Z" fill="#B3B3B3"/>
  <path d="M28.93 64.03c-7.92-8.15-9.11-21.07-9.11-28.05A16.17 16.17 0 0 1 36.07 19.8c2.84.01 5.65.78 8.14 2.23a1.5 1.5 0 0 0 2.1-1.66 1.5 1.5 0 0 0-.64-.92 19.12 19.12 0 0 0-26.22 6.94 19.13 19.13 0 0 0-2.58 9.59c0 7.42 1.29 21.2 9.94 30.1.14.14.3.26.49.34.18.08.38.12.58.12a1.46 1.46 0 0 0 1.36-.91c.11-.27.15-.56.09-.85a1.46 1.46 0 0 0-.39-.76l-.01.01Zm23.25-28.05a1.47 1.47 0 0 0 1.48 1.48c.4 0 .77-.15 1.05-.44.28-.28.43-.65.43-1.05a19.2 19.2 0 0 0-4.36-12.16c-.12-.16-.27-.3-.44-.41-.17-.1-.37-.17-.57-.2a1.53 1.53 0 0 0-1.13.33 1.48 1.48 0 0 0-.46 1.65c.07.19.17.36.29.49a16.3 16.3 0 0 1 3.7 10.29l.01.02Zm9.55 15.61c-3.91-1.08-5.48-6.83-6.07-10.17a1.48 1.48 0 0 0-2.28-.96 1.48 1.48 0 0 0-.65.94c-.04.19-.04.39 0 .58.72 4.02 2.73 11 8.24 12.51.09.02.18.03.28.03h.08c.36 0 .7-.13.96-.36.27-.24.45-.56.5-.92.05-.36-.03-.72-.23-1.02-.2-.3-.5-.52-.85-.62l.02-.01Z" fill="#B3B3B3"/>
  <path d="M37.92 65.3c-8.37-6.21-10.87-16.55-11.49-24.13a1.57 1.57 0 0 0-.52-1.02 1.41 1.41 0 0 0-.51-.28 1.51 1.51 0 0 0-1.88.96c-.06.19-.08.38-.07.58.67 8.22 3.42 19.45 12.69 26.28a1.47 1.47 0 0 0 1.75.01c.26-.18.44-.44.54-.74.1-.29.1-.62 0-.91-.09-.3-.28-.56-.53-.75h.02Zm19.6-8.88c-8.37-1.54-8.79-17.3-8.79-20.45a12.73 12.73 0 0 0-24.22-5.46 1.4 1.4 0 0 0-.08 1.15c.06.19.16.36.3.51.13.15.29.27.47.35.18.08.37.13.57.14a1.45 1.45 0 0 0 1.08-.4c.15-.14.26-.3.34-.47a9.78 9.78 0 0 1 16.43-1.92 9.76 9.76 0 0 1 2.14 6.09c0 5 .81 21.45 11.21 23.36l.24.04h.13a1.5 1.5 0 0 0 1.15-2.45c-.25-.3-.61-.49-.96-.52l-.01.03ZM46.3 63.56a16 16 0 0 1-7.96-7.31 1.48 1.48 0 0 0-2.6 1.41 18.94 18.94 0 0 0 9.42 8.63c.17.08.36.12.55.12h.02c.34 0 .67-.12.94-.33a1.48 1.48 0 0 0-.36-2.52h-.01Z" fill="#B3B3B3"/>
  <path d="M38.36 33.63c.63.63.98 1.47.98 2.36 0 .4.15.77.44 1.05.56.56 1.54.56 2.1 0 .28-.28.43-.65.43-1.05A6.28 6.28 0 0 0 36 29.68c-1.69 0-3.27.66-4.46 1.85a6.26 6.26 0 0 0-1.85 4.46 41.13 41.13 0 0 0 3.56 16.27c.12.26.3.48.54.64.24.16.52.24.8.24h.02a1.5 1.5 0 0 0 1.07-.47 1.41 1.41 0 0 0 .4-1.07c0-.2-.05-.39-.13-.56a37.95 37.95 0 0 1-3.29-15.05c0-.89.35-1.73.98-2.36a3.45 3.45 0 0 1 4.71 0h.01ZM52.9 59.97c-6.27-.31-8.83-8.52-9.87-15.36a1.53 1.53 0 0 0-.6-1c-.16-.12-.34-.2-.54-.24-.2-.04-.39-.05-.58-.01a1.49 1.49 0 0 0-1.23 1.69c1.77 11.37 6.15 17.55 12.61 17.86l.13.02h.03c.38 0 .75-.15 1.03-.41.28-.27.45-.65.46-1.04 0-.4-.14-.77-.41-1.06a1.45 1.45 0 0 0-1.03-.46v.01ZM6.97 35.98a28.95 28.95 0 0 1 6.08-17.8 1.52 1.52 0 0 0 .37-1.12 1.5 1.5 0 0 0-1.71-1.34c-.2.03-.39.1-.56.21a1.4 1.4 0 0 0-.41.39A31.86 31.86 0 0 0 4 35.97c0 3.98.72 7.88 2.16 11.59a1.5 1.5 0 0 0 1.38.97h.01a1.51 1.51 0 0 0 1.02-.41 1.54 1.54 0 0 0 .46-1.04c0-.2-.03-.39-.1-.57a28.72 28.72 0 0 1-1.96-10.53Z" fill="#B3B3B3"/>
</svg>
