<svg width="20" height="20" viewBox="0 0 20 20" fill="none" xmlns="http://www.w3.org/2000/svg">
<path fill-rule="evenodd" clip-rule="evenodd" d="M7.90897 8.36361C7.90897 7.00801 9.00787 5.90907 10.3635 5.90907C11.7192 5.90907 12.8181 7.00801 12.8181 8.36361V11.6363C12.8181 13.5437 14.1226 15.1442 15.8868 15.5983C16.3245 15.711 16.7705 15.4475 16.8831 15.0099C16.9958 14.5723 16.7323 14.1262 16.2948 14.0136C15.2359 13.7411 14.4544 12.7789 14.4544 11.6363V8.36361C14.4544 6.10427 12.6228 4.27271 10.3635 4.27271C8.10417 4.27271 6.27261 6.10427 6.27261 8.36361C6.27261 9.71926 5.17366 10.8182 3.81806 10.8182C3.36619 10.8182 2.99988 11.1845 2.99988 11.6363C2.99988 12.0882 3.36619 12.4545 3.81806 12.4545C6.0774 12.4545 7.90897 10.6229 7.90897 8.36361ZM10.3637 7.54543C10.8156 7.54543 11.1819 7.91175 11.1819 8.36361L11.1818 8.397V11.6363C11.1818 12.6809 11.4607 13.6578 11.9475 14.4994C12.0469 14.6713 12.1551 14.8376 12.2714 14.9977C12.5369 15.3633 12.4558 15.875 12.0901 16.1405C11.7245 16.406 11.2129 16.3249 10.9473 15.9593C10.798 15.7536 10.659 15.5398 10.5311 15.3187C10.0996 14.5729 9.7952 13.7443 9.64736 12.8634C9.14745 13.5101 8.54245 14.0712 7.8583 14.5208C7.4807 14.7691 6.97339 14.6642 6.72518 14.2866C6.47698 13.909 6.58187 13.4017 6.95947 13.1535C8.5112 12.1335 9.53543 10.383 9.54541 8.39307V8.36361C9.54541 7.91175 9.9118 7.54543 10.3637 7.54543Z" fill="#B3B3B3"/>
<path fill-rule="evenodd" clip-rule="evenodd" d="M16.3321 13.8684C16.8499 14.0017 17.1617 14.5295 17.0284 15.0473C16.8951 15.5652 16.3673 15.877 15.8494 15.7437C14.0206 15.2729 12.668 13.6139 12.668 11.6364V8.36371C12.668 7.09095 11.6363 6.05917 10.3635 6.05917C9.09069 6.05917 8.05894 7.09095 8.05894 8.36371C8.05894 10.7059 6.16022 12.6046 3.81804 12.6046C3.28333 12.6046 2.84985 12.1712 2.84985 11.6364C2.84985 11.1017 3.28333 10.6683 3.81804 10.6683C5.0908 10.6683 6.12258 9.63651 6.12258 8.36371C6.12258 6.02153 8.0213 4.1228 10.3635 4.1228C12.7057 4.1228 14.6044 6.02153 14.6044 8.36371V11.6364C14.6044 12.709 15.338 13.6126 16.3321 13.8684ZM16.8831 15.01C16.7705 15.4476 16.3244 15.7111 15.8868 15.5984C14.1225 15.1443 12.818 13.5438 12.818 11.6364V8.36371C12.818 7.00811 11.7191 5.90917 10.3635 5.90917C9.00784 5.90917 7.90894 7.00811 7.90894 8.36371C7.90894 10.623 6.07738 12.4546 3.81804 12.4546C3.36617 12.4546 2.99985 12.0883 2.99985 11.6364C2.99985 11.1846 3.36617 10.8183 3.81804 10.8183C5.17364 10.8183 6.27258 9.71936 6.27258 8.36371C6.27258 6.10437 8.10415 4.2728 10.3635 4.2728C12.6228 4.2728 14.4544 6.10437 14.4544 8.36371V11.6364C14.4544 12.779 15.2358 13.7412 16.2947 14.0137C16.7323 14.1263 16.9958 14.5724 16.8831 15.01ZM11.3318 8.36408L11.3318 8.39709V11.6364C11.3318 12.6539 11.6034 13.605 12.0773 14.4244C12.1741 14.5918 12.2795 14.7537 12.3927 14.9096C12.7069 15.3423 12.6109 15.9478 12.1782 16.262C11.7456 16.5762 11.1402 16.4801 10.8259 16.0475C10.6736 15.8377 10.5317 15.6195 10.4012 15.3939C10.4012 15.3939 10.4012 15.3939 10.4012 15.3939C10.0137 14.7241 9.72667 13.9889 9.56054 13.2095C9.09321 13.7628 8.54747 14.2474 7.94067 14.6463C7.49385 14.94 6.89352 14.8159 6.59981 14.3691C6.30611 13.9223 6.43021 13.3219 6.87705 13.0282C8.38845 12.0347 9.38554 10.3303 9.39539 8.39279V8.36371C9.39539 7.82899 9.82895 7.39553 10.3637 7.39553C10.8984 7.39553 11.3318 7.82937 11.3318 8.36408ZM9.54539 8.39317C9.53541 10.3831 8.51118 12.1336 6.95944 13.1536C6.58185 13.4017 6.47695 13.9091 6.72516 14.2867C6.97336 14.6643 7.48068 14.7692 7.85827 14.5209C8.48655 14.108 9.04807 13.6011 9.52276 13.0202C9.56497 12.9685 9.60651 12.9163 9.64734 12.8635C9.6584 12.9294 9.67035 12.9951 9.68316 13.0604M11.1818 8.39709L11.1818 8.36371C11.1818 7.91185 10.8155 7.54553 10.3637 7.54553C9.91177 7.54553 9.54539 7.91185 9.54539 8.36371V8.39317M10.9473 15.9594C11.2128 16.3249 11.7245 16.4061 12.0901 16.1406C12.4557 15.8751 12.5368 15.3634 12.2713 14.9978C12.1551 14.8377 12.0469 14.6714 11.9475 14.4995C11.4607 13.6579 11.1818 12.681 11.1818 11.6364V8.39709" fill="#B3B3B3"/>
<path fill-rule="evenodd" clip-rule="evenodd" d="M10.3635 1C6.29669 1 2.99988 4.29681 2.99988 8.36364C2.99988 8.81552 3.36619 9.18182 3.81806 9.18182C4.26993 9.18182 4.63624 8.81552 4.63624 8.36364C4.63624 5.20055 7.20043 2.63636 10.3635 2.63636C13.5266 2.63636 16.0908 5.20055 16.0908 8.36364V11.6364C16.0908 12.0882 16.4571 12.4545 16.909 12.4545C17.3609 12.4545 17.7272 12.0882 17.7272 11.6364V8.36364C17.7272 4.29681 14.4304 1 10.3635 1ZM5.37294 14.4485C5.1507 14.0551 4.65159 13.9163 4.25815 14.1385C3.86471 14.3607 3.72593 14.8598 3.94818 15.2533C5.21061 17.4882 7.61002 19 10.3636 19C11.7035 19 12.9621 18.6414 14.046 18.0143C14.4372 17.7881 14.5708 17.2875 14.3445 16.8965C14.1183 16.5053 13.6178 16.3717 13.2267 16.5979C12.3851 17.0847 11.4082 17.3636 10.3636 17.3636C8.22381 17.3636 6.35697 16.1905 5.37294 14.4485Z" fill="#B3B3B3"/>
<path fill-rule="evenodd" clip-rule="evenodd" d="M3.94732 15.2539L3.81755 15.3272C3.55456 14.8616 3.71878 14.271 4.18436 14.008C4.64992 13.7451 5.24053 13.9093 5.50352 14.3749C6.46201 16.0716 8.28002 17.2137 10.3636 17.2137C11.3811 17.2137 12.3322 16.9421 13.1515 16.4682C13.6143 16.2005 14.2066 16.3585 14.4744 16.8215C14.7421 17.2842 14.584 17.8766 14.1211 18.1443C13.0149 18.7842 11.7305 19.1501 10.3636 19.1501C7.55371 19.1501 5.10548 17.6073 3.81755 15.3272L3.94732 15.2539ZM14.046 18.0144C12.962 18.6415 11.7034 19.0001 10.3636 19.0001C7.61 19.0001 5.21058 17.4883 3.94815 15.2534C3.72591 14.8599 3.86469 14.3608 4.25813 14.1386C4.65157 13.9164 5.15067 14.0552 5.37292 14.4486C6.35694 16.1906 8.22379 17.3637 10.3636 17.3637C11.4081 17.3637 12.3851 17.0848 13.2266 16.598C13.6177 16.3718 14.1183 16.5054 14.3445 16.8966C14.5707 17.2876 14.4371 17.7882 14.046 18.0144ZM2.84985 8.36373C2.84985 4.21407 6.21383 0.850098 10.3635 0.850098C14.5132 0.850098 17.8771 4.21407 17.8771 8.36373V11.6365C17.8771 12.1712 17.4437 12.6046 16.9089 12.6046C16.3742 12.6046 15.9408 12.1712 15.9408 11.6365V8.36373C15.9408 5.28349 13.4437 2.78646 10.3635 2.78646C7.28325 2.78646 4.78622 5.28349 4.78622 8.36373C4.78622 8.89846 4.35274 9.33192 3.81804 9.33192C3.28333 9.33192 2.84985 8.89846 2.84985 8.36373ZM2.99985 8.36373C2.99985 4.29691 6.29667 1.0001 10.3635 1.0001C14.4303 1.0001 17.7271 4.29691 17.7271 8.36373V11.6365C17.7271 12.0883 17.3608 12.4546 16.9089 12.4546C16.4571 12.4546 16.0908 12.0883 16.0908 11.6365V8.36373C16.0908 5.20065 13.5266 2.63646 10.3635 2.63646C7.20041 2.63646 4.63622 5.20065 4.63622 8.36373C4.63622 8.81562 4.2699 9.18192 3.81804 9.18192C3.36617 9.18192 2.99985 8.81562 2.99985 8.36373Z" fill="#B3B3B3"/>
</svg>
