<svg width="20" height="20" viewBox="0 0 20 20" fill="none" xmlns="http://www.w3.org/2000/svg">
<path fill-rule="evenodd" clip-rule="evenodd" d="M10 19C14.968 19 19 14.968 19 10C19 5.032 14.968 1 10 1C5.032 1 1 5.032 1 10C1 14.968 5.032 19 10 19ZM10.6682 5.96212C10.6682 5.40983 10.2205 4.96212 9.66821 4.96212C9.11593 4.96212 8.66821 5.40983 8.66821 5.96212V9.65212C8.66821 10.1509 8.8357 10.6358 9.05829 11.0261C9.28084 11.4164 9.61254 11.8069 10.0404 12.0604C10.0539 12.0684 10.0676 12.0761 10.0815 12.0835L12.5313 13.3833C13.0192 13.6422 13.6245 13.4565 13.8834 12.9687C14.1422 12.4808 13.9566 11.8755 13.4687 11.6166L11.0476 10.332C10.9873 10.2916 10.8861 10.1939 10.7956 10.0354C10.6987 9.86542 10.6682 9.72035 10.6682 9.65212V5.96212Z" fill="#B3B3B3"/>
</svg>
