<svg width="16" height="16" viewBox="0 0 16 16" fill="none" xmlns="http://www.w3.org/2000/svg">
<path d="M7.1 3.99995C7.1 2.89538 6.18131 1.96917 5.13559 2.32491C4.25916 2.62305 3.45363 3.11962 2.78665 3.7866C1.64268 4.93057 1 6.48213 1 8.09995C1 9.71777 1.64268 11.2693 2.78665 12.4133C3.45363 13.0803 4.25916 13.5769 5.13559 13.875C6.18131 14.2307 7.1 13.3045 7.1 12.2L7.1 8.09995L7.1 3.99995Z" fill="#9DE7A9"/>
<path d="M8.27305 3.99995C8.27305 2.89538 9.19174 1.96917 10.2375 2.32491C11.1139 2.62305 11.9194 3.11962 12.5864 3.7866C13.7304 4.93057 14.373 6.48213 14.373 8.09995C14.373 9.71777 13.7304 11.2693 12.5864 12.4133C11.9194 13.0803 11.1139 13.5769 10.2375 13.875C9.19174 14.2307 8.27305 13.3045 8.27305 12.2L8.27305 8.09995L8.27305 3.99995Z" fill="#9DE7A9"/>
</svg>
