<svg width="16" height="16" viewBox="0 0 16 16" fill="none" xmlns="http://www.w3.org/2000/svg">
<path d="M7.1 1.99995C7.1 0.89538 6.18131 -0.0308268 5.13559 0.324905C4.25916 0.62305 3.45363 1.11962 2.78665 1.7866C1.64268 2.93057 1 4.48213 1 6.09995C1 7.71777 1.64268 9.26933 2.78665 10.4133C3.45363 11.0803 4.25916 11.5769 5.13559 11.875C6.18131 12.2307 7.1 11.3045 7.1 10.2L7.1 6.09995L7.1 1.99995Z" fill="#FF8F69"/>
<path d="M8.27305 5.05C8.27305 3.94543 9.19174 3.01922 10.2375 3.37495C11.1139 3.6731 11.9194 4.16967 12.5864 4.83665C13.7304 5.98062 14.373 7.53218 14.373 9.15C14.373 10.7678 13.7304 12.3194 12.5864 13.4634C11.9194 14.1303 11.1139 14.6269 10.2375 14.925C9.19174 15.2808 8.27305 14.3546 8.27305 13.25L8.27305 9.15L8.27305 5.05Z" fill="white" fill-opacity="0.1"/>
</svg>
