<svg width="20" height="20" viewBox="0 0 20 20" fill="none" xmlns="http://www.w3.org/2000/svg">
<path d="M8.32947 9.49796L8.30457 9.97172H7.83015H6.11606C5.69376 9.97172 5.46164 10.4629 5.72976 10.7892L9.41348 15.272C9.81306 15.7582 10.5571 15.7589 10.9576 15.2733L14.6553 10.7899C14.9242 10.4637 14.6922 9.97172 14.2695 9.97172H12.5628H12.0353L12.0635 9.44496C12.1008 8.74852 12.0948 8.07977 12.089 7.43099C12.0885 7.37463 12.088 7.31842 12.0875 7.26235C12.0816 6.56926 12.0801 5.89076 12.1453 5.26329C12.278 3.98674 12.6978 2.84076 13.9697 2.07208L14.005 2.05071L14.0434 2.03543L14.4668 1.86693L13.2027 1.99736C12.0341 2.11792 11.1851 2.37188 10.5582 2.73012C9.93986 3.0834 9.51531 3.55056 9.21022 4.14135C8.89995 4.7422 8.70737 5.48264 8.57924 6.38513C8.45106 7.288 8.39136 8.31992 8.32947 9.49796Z" fill="#B3B3B3" stroke="#B3B3B3"/>
<path d="M4 19H17H4Z" fill="#B3B3B3"/>
<path d="M4 19H17" stroke="#B3B3B3" stroke-width="2" stroke-linecap="round"/>
</svg>
