<svg width="20" height="20" viewBox="0 0 20 20" fill="none" xmlns="http://www.w3.org/2000/svg">
<path d="M18 7.04588C18 6.36465 17.8631 5.70446 17.5951 5.08063C17.335 4.47976 16.9633 3.94013 16.49 3.47704C16.0166 3.01396 15.465 2.65038 14.8509 2.39587C14.2152 2.13179 13.5384 1.99976 12.8421 1.99976C12.1457 1.99976 11.4709 2.13371 10.8333 2.39587C10.2191 2.65038 9.66752 3.01396 9.19417 3.47704C8.72082 3.94013 8.34918 4.47976 8.08904 5.08063C7.81911 5.70255 7.68415 6.36465 7.68415 7.04588C7.68415 7.89743 7.90322 8.73175 8.31984 9.47423L2.14481 15.5097C2.00202 15.6494 1.95703 15.8618 2.04505 16.0627C2.06266 16.1048 2.092 16.1431 2.12525 16.1756L3.50813 17.5285C3.54138 17.561 3.5805 17.5878 3.62353 17.607C3.82891 17.6931 4.04602 17.651 4.18881 17.5094L5.04357 16.6731L6.27389 17.8768C6.30714 17.9093 6.34626 17.9361 6.38927 17.9552C6.59465 18.0413 6.81178 17.9993 6.95455 17.8576L8.31787 16.5239C8.35112 16.4913 8.3785 16.4531 8.39806 16.411C8.48608 16.21 8.44305 15.9976 8.29831 15.858L7.08756 14.6734L10.358 11.472C11.1149 11.8796 11.9697 12.0939 12.8401 12.0939C13.5364 12.0939 14.2112 11.96 14.8489 11.6978C15.4631 11.4433 16.0147 11.0797 16.488 10.6166C16.9613 10.1536 17.333 9.61394 17.5931 9.01305C17.8631 8.38731 18 7.72712 18 7.04588ZM14.6494 8.81595C14.1663 9.28861 13.5228 9.54885 12.8401 9.54885C12.1575 9.54885 11.514 9.28861 11.0309 8.81595C10.5477 8.3433 10.2798 7.71373 10.2798 7.04588C10.2798 6.37613 10.5458 5.74847 11.0289 5.27582C11.512 4.80316 12.1556 4.54291 12.8382 4.54291C13.5208 4.54291 14.1643 4.80316 14.6475 5.27582C15.1306 5.74847 15.3966 6.37804 15.3966 7.04588C15.4005 7.71373 15.1345 8.3433 14.6494 8.81595Z" fill="#B3B3B3"/>
</svg>
