<svg width="57" height="56" viewBox="0 0 57 56" fill="none" xmlns="http://www.w3.org/2000/svg">
<path d="M25.5003 47.9999C25.2808 48.0021 25.0631 47.9606 24.8599 47.8776C24.6566 47.7946 24.472 47.6719 24.3168 47.5167C24.1616 47.3615 24.0389 47.1769 23.956 46.9737C23.873 46.7705 23.8314 46.5527 23.8336 46.3333C23.8336 46.3033 23.8353 46.1916 23.8386 46.1616L25.407 31.3333H17.167C16.9475 31.3355 16.7298 31.294 16.5266 31.211C16.3233 31.128 16.1387 31.0053 15.9835 30.8501C15.8283 30.6949 15.7056 30.5103 15.6227 30.3071C15.5397 30.1039 15.4981 29.8861 15.5003 29.6667C15.5003 29.3117 15.622 28.9467 15.8353 28.665L29.1403 8.70508C29.4786 8.25008 29.9786 8.00009 30.5003 8.00009C30.7198 7.99786 30.9375 8.03944 31.1407 8.12241C31.3439 8.20538 31.5285 8.32806 31.6837 8.48327C31.8389 8.63848 31.9616 8.8231 32.0446 9.02631C32.1276 9.22953 32.1692 9.44726 32.1669 9.66674C32.1669 9.70008 32.1653 9.83174 32.1619 9.86508L30.6036 23H40.5002C40.7197 22.9978 40.9374 23.0394 41.1407 23.1223C41.3439 23.2053 41.5285 23.328 41.6837 23.4832C41.8389 23.6384 41.9616 23.823 42.0446 24.0262C42.1275 24.2295 42.1691 24.4472 42.1669 24.6667C42.1669 25.0183 42.0452 25.3833 41.8335 25.6667L26.8519 47.3082C26.6963 47.5211 26.493 47.6945 26.2583 47.8146C26.0235 47.9347 25.7639 47.9982 25.5003 47.9999ZM30.5053 9.66841L17.1937 29.63L26.3336 29.6667C26.4506 29.6664 26.5662 29.6909 26.6731 29.7384C26.7799 29.7859 26.8756 29.8554 26.9537 29.9424C27.0319 30.0294 27.0908 30.1319 27.1267 30.2432C27.1626 30.3545 27.1746 30.4721 27.1619 30.5883L25.4953 46.3383L40.5002 24.6667V24.66L29.6669 24.6667C29.5491 24.6668 29.4326 24.6419 29.3252 24.5937C29.2177 24.5455 29.1216 24.4751 29.0433 24.3871C28.9651 24.299 28.9063 24.1954 28.8711 24.083C28.8358 23.9706 28.8247 23.852 28.8386 23.735L30.5053 9.66841Z" fill="#7D81A7"/>
</svg>
