<svg width="161" height="160" viewBox="0 0 161 160" fill="none" xmlns="http://www.w3.org/2000/svg">
<rect x="0.5" width="160" height="160" rx="80" fill="#11142B"/>
<path d="M29.5884 122.936L22.0103 115.358L41.5204 95.8477C50.2555 87.1127 50.2555 72.8976 41.5204 64.1626L22 44.6421L29.5782 37.064L49.0986 56.5844C62.013 69.4988 62.013 90.5115 49.0986 103.426L29.5884 122.936Z" fill="#272B4F"/>
<path d="M116.316 138.958L96.8057 119.448C88.0707 110.713 73.8556 110.713 65.1205 119.448L45.6104 138.958L38.0322 131.38L57.5424 111.87C70.4567 98.9557 91.4695 98.9557 104.384 111.87L123.894 131.38L116.316 138.958Z" fill="#272B4F"/>
<path d="M132.339 122.936L112.828 103.426C99.914 90.5115 99.914 69.4987 112.828 56.5844L132.339 37.0742L139.917 44.6524L120.407 64.1625C111.671 72.8976 111.671 87.1127 120.407 95.8477L139.917 115.358L132.339 122.936Z" fill="#272B4F"/>
<path d="M80.9624 57.827C72.4806 57.827 63.9988 54.5992 57.5434 48.1403L38.0229 28.6199L45.6011 21.0417L65.1215 40.5622C73.8566 49.2973 88.0717 49.2973 96.8067 40.5622L116.317 21.052L123.895 28.6302L104.385 48.1403C97.926 54.5958 89.4476 57.827 80.9659 57.827H80.9624Z" fill="#272B4F"/>
</svg>
