<svg width="20" height="20" viewBox="0 0 20 20" fill="none" xmlns="http://www.w3.org/2000/svg">
<path d="M10.0174 2C5.5895 2 2 5.58172 2 10C2 14.4183 5.5895 18 10.0174 18C14.1842 18 17.6081 14.8285 17.9978 10.7725C18.016 10.5837 17.9188 10.4025 17.7513 10.3129C17.5838 10.2232 17.3788 10.2426 17.2312 10.3621C16.4204 11.0187 15.3878 11.4118 14.2619 11.4118C11.6572 11.4118 9.54577 9.30487 9.54577 6.70588C9.54577 5.16225 10.2901 3.79222 11.4422 2.93333C11.5945 2.81977 11.6636 2.62604 11.6174 2.44199C11.5712 2.25794 11.4187 2.11958 11.2308 2.09109C10.8348 2.03108 10.4296 2 10.0174 2Z" fill="#B3B3B3"/>
</svg>
