<svg width="24" height="24" viewBox="0 0 24 24" fill="none" xmlns="http://www.w3.org/2000/svg">
<path fill-rule="evenodd" clip-rule="evenodd" d="M1 12C1 5.92487 5.92487 1 12 1C18.0751 1 23 5.92487 23 12C23 18.0751 18.0751 23 12 23C5.92487 23 1 18.0751 1 12ZM10.5541 8.61672C9.38043 9.58226 8.59636 10.9403 8.347 12.4395L7.52141 17.4028C7.33082 18.5486 8.66317 19.3179 9.56021 18.5799L13.4458 15.3832C14.6194 14.4177 15.4035 13.0597 15.6528 11.5605L16.4784 6.59718C16.669 5.45133 15.3367 4.68209 14.4396 5.42008L10.5541 8.61672Z" fill="#B3B3B3"/>
<path d="M10.1143 12C10.1143 10.9585 10.9585 10.1143 12 10.1143C13.0415 10.1143 13.8857 10.9585 13.8857 12C13.8857 13.0415 13.0415 13.8857 12 13.8857C10.9585 13.8857 10.1143 13.0415 10.1143 12Z" fill="#B3B3B3"/>
</svg>
