<svg width="32" height="32" viewBox="0 0 32 32" fill="none" xmlns="http://www.w3.org/2000/svg">
<rect width="32" height="32" rx="16" fill="#353960"/>
<path d="M8.15837 22.5542L7.00157 21.3974L9.9798 18.4191C11.3132 17.0857 11.3132 14.9158 9.9798 13.5824L7 10.6026L8.15681 9.44577L11.1366 12.4256C13.108 14.3969 13.108 17.6046 11.1366 19.5759L8.15837 22.5542Z" fill="white"/>
<path d="M21.3973 25L18.4191 22.0218C17.0857 20.6884 14.9158 20.6884 13.5824 22.0218L10.6041 25L9.44733 23.8432L12.4256 20.865C14.3969 18.8936 17.6045 18.8936 19.5759 20.865L22.5541 23.8432L21.3973 25Z" fill="white"/>
<path d="M23.8432 22.5542L20.8649 19.576C18.8936 17.6046 18.8936 14.397 20.8649 12.4256L23.8432 9.44737L25 10.6042L22.0218 13.5824C20.6883 14.9158 20.6883 17.0857 22.0218 18.4192L25 21.3974L23.8432 22.5542Z" fill="white"/>
<path d="M16.0005 12.6153C14.7057 12.6153 13.411 12.1226 12.4256 11.1366L9.44577 8.15681L10.6026 7L13.5824 9.9798C14.9158 11.3132 17.0857 11.3132 18.4191 9.9798L21.3974 7.00157L22.5542 8.15837L19.5759 11.1366C18.59 12.122 17.2958 12.6153 16.001 12.6153H16.0005Z" fill="white"/>
</svg>
