<svg width="40" height="40" viewBox="0 0 40 40" fill="none" xmlns="http://www.w3.org/2000/svg">
<rect width="40" height="40" rx="20" fill="#0F1224"/>
<path d="M12.1584 26.5542L11.0016 25.3974L13.9798 22.4191C15.3132 21.0857 15.3132 18.9158 13.9798 17.5824L11 14.6026L12.1568 13.4458L15.1366 16.4256C17.108 18.3969 17.108 21.6046 15.1366 23.5759L12.1584 26.5542Z" fill="white"/>
<path d="M25.3973 29L22.4191 26.0218C21.0857 24.6884 18.9158 24.6884 17.5824 26.0218L14.6041 29L13.4473 27.8432L16.4256 24.865C18.3969 22.8936 21.6045 22.8936 23.5759 24.865L26.5541 27.8432L25.3973 29Z" fill="white"/>
<path d="M27.8432 26.5542L24.8649 23.576C22.8936 21.6046 22.8936 18.397 24.8649 16.4256L27.8432 13.4474L29 14.6042L26.0218 17.5824C24.6883 18.9158 24.6883 21.0857 26.0218 22.4192L29 25.3974L27.8432 26.5542Z" fill="white"/>
<path d="M20.0005 16.6153C18.7057 16.6153 17.411 16.1226 16.4256 15.1366L13.4458 12.1568L14.6026 11L17.5824 13.9798C18.9158 15.3132 21.0857 15.3132 22.4191 13.9798L25.3974 11.0016L26.5542 12.1584L23.5759 15.1366C22.59 16.122 21.2958 16.6153 20.001 16.6153H20.0005Z" fill="white"/>
</svg>
