<svg width="20" height="20" viewBox="0 0 20 20" fill="none" xmlns="http://www.w3.org/2000/svg">
<path d="M1.28708 17.2824L0.00174165 15.9971L3.31089 12.6879C4.79245 11.2064 4.79245 8.79532 3.31089 7.31376L0 4.00287L1.28534 2.71753L4.59623 6.02841C6.78665 8.21883 6.78665 11.7828 4.59623 13.9733L1.28708 17.2824Z" fill="white"/>
<path d="M15.997 20L12.6879 16.6909C11.2063 15.2093 8.79529 15.2093 7.31372 16.6909L4.00458 20L2.71924 18.7147L6.02838 15.4055C8.2188 13.2151 11.7828 13.2151 13.9732 15.4055L17.2824 18.7147L15.997 20Z" fill="white"/>
<path d="M18.7147 17.2824L15.4055 13.9733C13.2151 11.7829 13.2151 8.21886 15.4055 6.02844L18.7147 2.7193L20 4.00464L16.6909 7.31378C15.2093 8.79535 15.2093 11.2064 16.6909 12.688L20 15.9971L18.7147 17.2824Z" fill="white"/>
<path d="M10.0005 6.23919C8.56194 6.23919 7.12333 5.69173 6.02841 4.59623L2.71753 1.28534L4.00287 0L7.31376 3.31089C8.79532 4.79245 11.2064 4.79245 12.6879 3.31089L15.9971 0.00174165L17.2824 1.28708L13.9733 4.59623C12.8778 5.69115 11.4397 6.23919 10.0011 6.23919H10.0005Z" fill="white"/>
</svg>
