<svg width="24" height="24" viewBox="0 0 24 24" fill="none" xmlns="http://www.w3.org/2000/svg">
<defs>
<clipPath id="clip0_453_20224">
<rect width="24" height="24" fill="white"/>
</clipPath>
</defs>
<g clip-path="url(#clip0_453_20224)">
<path fill-rule="evenodd" clip-rule="evenodd" d="M4.20066 6.26992C3.45508 6.72349 3 7.53303 3 8.40574V15.6874C3 16.5095 3.40414 17.279 4.08092 17.7456L10.6287 22.2601C11.4875 22.8522 12.6237 22.8489 13.479 22.2517L19.9312 17.7466C20.601 17.279 21 16.5137 21 15.6968V8.39651C21 7.52881 20.5501 6.72316 19.8113 6.26803L13.3599 2.29339C12.5601 1.80069 11.5517 1.79785 10.7492 2.28606L4.20066 6.26992ZM13.0034 8.86644C12.6258 8.46261 11.9922 8.44182 11.5889 8.82003L8.87531 11.3651C8.4696 11.7456 8.45236 12.384 8.83694 12.7859L11.3651 15.4276C11.747 15.8266 12.38 15.8405 12.779 15.4586L15.4363 12.9155C15.832 12.5367 15.8494 11.9101 15.4753 11.51L13.0034 8.86644Z" fill="#B3B3B3"/>
</g>
</svg>
