<svg width="20" height="20" viewBox="0 0 20 20" fill="none" xmlns="http://www.w3.org/2000/svg">
<path d="M4 5.2C4 4.07989 4 3.51984 4.21799 3.09202C4.40973 2.71569 4.71569 2.40973 5.09202 2.21799C5.51984 2 6.0799 2 7.2 2H7.4C10.7603 2 12.4405 2 13.7239 2.65396C14.8529 3.2292 15.7708 4.14708 16.346 5.27606C17 6.55953 17 8.23969 17 11.6V14.1636C17 15.2837 17 15.8438 16.782 16.2716C16.5903 16.6479 16.2843 16.9539 15.908 17.1456C15.4802 17.3636 14.9201 17.3636 13.8 17.3636H7.2C6.0799 17.3636 5.51984 17.3636 5.09202 17.1456C4.71569 16.9539 4.40973 16.6479 4.21799 16.2716C4 15.8438 4 15.2837 4 14.1636V5.2Z" fill="#222222"/>
<path d="M10.4189 14.2589V9.18384" stroke="white" stroke-width="2" stroke-linecap="round" stroke-linejoin="round"/>
<path d="M8.21094 9.03073L10.4186 6.82312L12.6262 9.03073" stroke="white" stroke-width="2" stroke-linecap="round" stroke-linejoin="round"/>
</svg>
