<svg width="20" height="20" viewBox="0 0 20 20" fill="none" xmlns="http://www.w3.org/2000/svg">
<path fill-rule="evenodd" clip-rule="evenodd" d="M4 5.2C4 4.07989 4 3.51984 4.21799 3.09202C4.40973 2.71569 4.71569 2.40973 5.09202 2.21799C5.51984 2 6.0799 2 7.2 2H7.4C10.7603 2 12.4405 2 13.7239 2.65396C14.8529 3.2292 15.7708 4.14708 16.346 5.27606C17 6.55953 17 8.23969 17 11.6V14.1636C17 15.2837 17 15.8438 16.782 16.2716C16.5903 16.6479 16.2843 16.9539 15.908 17.1456C15.4802 17.3636 14.9201 17.3636 13.8 17.3636H7.2C6.0799 17.3636 5.51984 17.3636 5.09202 17.1456C4.71569 16.9539 4.40973 16.6479 4.21799 16.2716C4 15.8438 4 15.2837 4 14.1636V5.2ZM11.4191 9.23748L11.9193 9.73772C12.3098 10.1282 12.943 10.1282 13.3335 9.73772C13.724 9.34719 13.724 8.71403 13.3335 8.3235L11.1259 6.11589C10.7354 5.72537 10.1022 5.72537 9.71169 6.11589L7.50407 8.3235C7.11355 8.71403 7.11355 9.34719 7.50407 9.73772C7.8946 10.1282 8.52776 10.1282 8.91829 9.73772L9.41907 9.23694V14.2589C9.41907 14.8112 9.86678 15.2589 10.4191 15.2589C10.9714 15.2589 11.4191 14.8112 11.4191 14.2589V9.23748Z" fill="#222222"/>
</svg>
