<svg width="20" height="20" viewBox="0 0 20 20" fill="none" xmlns="http://www.w3.org/2000/svg">
<path fill-rule="evenodd" clip-rule="evenodd" d="M3 5.2C3 4.0799 3 3.51984 3.21799 3.09202C3.40973 2.71569 3.71569 2.40973 4.09202 2.21799C4.51984 2 5.0799 2 6.2 2H7.4C10.7603 2 12.4405 2 13.7239 2.65396C14.8529 3.2292 15.7708 4.14708 16.346 5.27606C17 6.55953 17 8.23969 17 11.6V14.8C17 15.9201 17 16.4802 16.782 16.908C16.5903 17.2843 16.2843 17.5903 15.908 17.782C15.4802 18 14.9201 18 13.8 18H6.2C5.0799 18 4.51984 18 4.09202 17.782C3.71569 17.5903 3.40973 17.2843 3.21799 16.908C3 16.4802 3 15.9201 3 14.8V5.2ZM10.9128 9.38124L11.5947 10.0407C11.9917 10.4246 12.6248 10.414 13.0087 10.017C13.3927 9.61995 13.3821 8.98687 12.9851 8.60294L10.6076 6.30389C10.22 5.92903 9.60494 5.92903 9.21731 6.30389L6.83988 8.60294C6.44286 8.98687 6.43225 9.61995 6.81618 10.017C7.2001 10.414 7.83318 10.4246 8.23019 10.0407L8.91284 9.38051V14.7667C8.91284 15.319 9.36056 15.7667 9.91284 15.7667C10.4651 15.7667 10.9128 15.319 10.9128 14.7667V9.38124Z" fill="#B3B3B3"/>
</svg>
