<svg width="20" height="20" viewBox="0 0 20 20" fill="none" xmlns="http://www.w3.org/2000/svg">
<defs>
<clipPath id="clip0_960_170339">
<rect width="20" height="20" fill="white"/>
</clipPath>
</defs>
<g clip-path="url(#clip0_960_170339)">
<path d="M10 19C14.9706 19 19 14.9706 19 10C19 5.02944 14.9706 1 10 1C5.02944 1 1 5.02944 1 10C1 14.9706 5.02944 19 10 19Z" stroke="#B3B3B3" stroke-width="1.7" stroke-linecap="round" stroke-linejoin="round"/>
<path d="M6.6 2H7.5C5.745 7.256 5.745 12.944 7.5 18.2H6.6" stroke="#B3B3B3" stroke-width="1.7" stroke-linecap="round" stroke-linejoin="round"/>
<path d="M12.5 1.8C14.255 7.056 14.255 12.744 12.5 18" stroke="#B3B3B3" stroke-width="1.7" stroke-linecap="round" stroke-linejoin="round"/>
<path d="M3 14.5C7.672 12.9 12.728 12.9 17.4 14.5" stroke="#B3B3B3" stroke-width="1.5" stroke-linecap="round" stroke-linejoin="round"/>
<path d="M17.6 5.99994C12.344 7.7549 7.256 7.75496 2 6" stroke="#B3B3B3" stroke-width="1.5" stroke-linecap="round" stroke-linejoin="round"/>
</g>
</svg>
