<svg width="24" height="24" viewBox="0 0 24 24" fill="none" xmlns="http://www.w3.org/2000/svg">
<path fill-rule="evenodd" clip-rule="evenodd" d="M12 24C18.6274 24 24 18.6274 24 12C24 5.37258 18.6274 0 12 0C5.37258 0 0 5.37258 0 12C0 18.6274 5.37258 24 12 24ZM11.9995 18C12.5623 18 13.0185 17.5637 13.0185 17.0255V12.975H16.9811C17.5438 12.975 18 12.5387 18 12.0005C18 11.4623 17.5438 11.026 16.9811 11.026H13.0185V6.97446C13.0185 6.43628 12.5623 6 11.9995 6C11.4368 6 10.9806 6.43628 10.9806 6.97446V11.026H7.01894C6.45619 11.026 6 11.4623 6 12.0005C6 12.5387 6.45619 12.975 7.01894 12.975H10.9806V17.0255C10.9806 17.5637 11.4368 18 11.9995 18Z" fill="#B3B3B3"/>
</svg>
