<svg width="20" height="20" viewBox="0 0 20 20" fill="none" xmlns="http://www.w3.org/2000/svg">
<g clip-path="url(#clip0_2639_15115)">
<path d="M2.25 8.50294H6.25C6.94 8.50294 7.5 7.94294 7.5 7.25294C7.5 6.56294 6.94 6.00294 6.25 6.00294H4.95C5.47 5.37294 6.09 4.84294 6.8 4.43294C8.09 3.68294 9.62 3.37294 11.1 3.57294C12.58 3.77294 13.98 4.45294 15.04 5.50294C16.1 6.55294 16.8 7.95294 17 9.43294C17.05 9.76294 17.22 10.0529 17.48 10.2629C17.7 10.4329 17.96 10.5129 18.23 10.5129C18.29 10.5129 18.35 10.5129 18.4 10.5029C19.08 10.4029 19.56 9.77294 19.47 9.09294C19.19 7.07294 18.24 5.16294 16.79 3.72294C15.36 2.27294 13.45 1.34294 11.42 1.08294C9.4 0.82294 7.31 1.24294 5.55 2.26294C4.79 2.70294 4.11 3.24294 3.5 3.86294V3.24294C3.5 2.55294 2.94 1.99294 2.25 1.99294C1.56 1.99294 1 2.55294 1 3.24294V7.24294C1 7.93294 1.56 8.49294 2.25 8.49294V8.50294Z" fill="#B3B3B3"/>
<path d="M18.2496 11.9979H14.2496C13.5596 11.9979 12.9996 12.5579 12.9996 13.2479C12.9996 13.9379 13.5596 14.4979 14.2496 14.4979H15.5496C15.0296 15.1279 14.4096 15.6579 13.6996 16.0679C12.4096 16.8179 10.8796 17.1179 9.39964 16.9279C7.91964 16.7379 6.51964 16.0479 5.45964 14.9979C4.39964 13.9479 3.69964 12.5479 3.49964 11.0679C3.44964 10.7379 3.27964 10.4479 3.01964 10.2379C2.74964 10.0379 2.41964 9.94794 2.08964 9.99794C1.40964 10.0979 0.929636 10.7279 1.01964 11.4079C1.29964 13.4279 2.24964 15.3379 3.69964 16.7779C5.14964 18.2179 7.05964 19.1479 9.07964 19.4079C9.46964 19.4579 9.86964 19.4879 10.2596 19.4879C11.8996 19.4879 13.5296 19.0579 14.9496 18.2379C15.7096 17.7979 16.3896 17.2579 16.9996 16.6279V17.2479C16.9996 17.9379 17.5596 18.4979 18.2496 18.4979C18.9396 18.4979 19.4996 17.9379 19.4996 17.2479V13.2379C19.4996 12.5479 18.9396 11.9879 18.2496 11.9879V11.9979Z" fill="#B3B3B3"/>
</g>
<defs>
<clipPath id="clip0_2639_15115">
<rect width="18.5" height="18.5" fill="white" transform="translate(1 1)"/>
</clipPath>
</defs>
</svg>
