<svg width="20" height="20" viewBox="0 0 20 20" fill="none" xmlns="http://www.w3.org/2000/svg">
<path fill-rule="evenodd" clip-rule="evenodd" d="M6.6244 4.34474H6.17634L6.12774 4.34473C5.71863 4.34467 5.33003 4.3446 5.01122 4.38648C4.65502 4.43327 4.26002 4.54577 3.93309 4.86518C3.60616 5.1846 3.49102 5.57052 3.44313 5.91853C3.40027 6.23002 3.40033 6.60969 3.4004 7.0094L3.4004 7.05688V7.49464L3.4004 7.54213C3.40033 7.94183 3.40027 8.3215 3.44313 8.63299C3.49102 8.981 3.60616 9.36692 3.93309 9.68634C4.26002 10.0058 4.65502 10.1183 5.01122 10.165C5.33003 10.2069 5.71862 10.2069 6.12773 10.2068H6.12774L6.17634 10.2068H6.6244L6.673 10.2068H6.67301C7.08211 10.2069 7.47071 10.2069 7.78952 10.165C8.14572 10.1183 8.54072 10.0058 8.86765 9.68634C9.19457 9.36692 9.30972 8.981 9.35761 8.63299C9.40047 8.3215 9.40041 7.94183 9.40034 7.54212L9.40034 7.49464V7.05688L9.40034 7.0094C9.40041 6.60969 9.40047 6.23002 9.35761 5.91853C9.30972 5.57052 9.19457 5.1846 8.86765 4.86518C8.54072 4.54577 8.14572 4.43327 7.78952 4.38648C7.47071 4.3446 7.08211 4.34467 6.673 4.34473L6.6244 4.34474Z" fill="#B3B3B3"/>
<path fill-rule="evenodd" clip-rule="evenodd" d="M6.6244 11.3794H6.17634L6.12774 11.3794C5.71863 11.3793 5.33003 11.3793 5.01122 11.4212C4.65502 11.4679 4.26002 11.5804 3.93309 11.8999C3.60616 12.2193 3.49102 12.6052 3.44313 12.9532C3.40027 13.2647 3.40033 13.6444 3.4004 14.0441L3.4004 14.0915V14.5293L3.4004 14.5768C3.40033 14.9765 3.40027 15.3562 3.44313 15.6677C3.49102 16.0157 3.60616 16.4016 3.93309 16.721C4.26002 17.0404 4.65502 17.1529 5.01122 17.1997C5.33003 17.2416 5.71862 17.2415 6.12773 17.2415H6.12774L6.17634 17.2415H6.6244L6.673 17.2415H6.67301C7.08211 17.2415 7.47071 17.2416 7.78952 17.1997C8.14572 17.1529 8.54072 17.0404 8.86765 16.721C9.19457 16.4016 9.30972 16.0157 9.35761 15.6677C9.40047 15.3562 9.40041 14.9765 9.40034 14.5768L9.40034 14.5293V14.0915L9.40034 14.0441C9.40041 13.6444 9.40047 13.2647 9.35761 12.9532C9.30972 12.6052 9.19457 12.2193 8.86765 11.8999C8.54072 11.5804 8.14572 11.4679 7.78952 11.4212C7.47071 11.3793 7.08211 11.3793 6.673 11.3794L6.6244 11.3794Z" fill="#B3B3B3"/>
<path fill-rule="evenodd" clip-rule="evenodd" d="M13.8236 4.34474H13.3756L13.327 4.34473C12.9178 4.34467 12.5292 4.3446 12.2104 4.38648C11.8542 4.43327 11.4592 4.54577 11.1323 4.86518C10.8054 5.1846 10.6902 5.57052 10.6423 5.91853C10.5995 6.23002 10.5995 6.60969 10.5996 7.0094L10.5996 7.05688V7.49464L10.5996 7.54213C10.5995 7.94183 10.5995 8.3215 10.6423 8.63299C10.6902 8.981 10.8054 9.36692 11.1323 9.68634C11.4592 10.0058 11.8542 10.1183 12.2104 10.165C12.5292 10.2069 12.9178 10.2069 13.3269 10.2068H13.327L13.3756 10.2068H13.8236L13.8722 10.2068H13.8722C14.2813 10.2069 14.6699 10.2069 14.9887 10.165C15.3449 10.1183 15.7399 10.0058 16.0669 9.68634C16.3938 9.36692 16.5089 8.981 16.5568 8.63299C16.5997 8.3215 16.5996 7.94183 16.5996 7.54212L16.5996 7.49464V7.05688L16.5996 7.0094C16.5996 6.60969 16.5997 6.23002 16.5568 5.91853C16.5089 5.57052 16.3938 5.1846 16.0669 4.86518C15.7399 4.54577 15.3449 4.43327 14.9887 4.38648C14.6699 4.3446 14.2813 4.34467 13.8722 4.34473L13.8236 4.34474Z" fill="#B3B3B3"/>
<path fill-rule="evenodd" clip-rule="evenodd" d="M13.8236 11.3794H13.3756L13.327 11.3794C12.9178 11.3793 12.5292 11.3793 12.2104 11.4212C11.8542 11.4679 11.4592 11.5804 11.1323 11.8999C10.8054 12.2193 10.6902 12.6052 10.6423 12.9532C10.5995 13.2647 10.5995 13.6444 10.5996 14.0441L10.5996 14.0915V14.5293L10.5996 14.5768C10.5995 14.9765 10.5995 15.3562 10.6423 15.6677C10.6902 16.0157 10.8054 16.4016 11.1323 16.721C11.4592 17.0404 11.8542 17.1529 12.2104 17.1997C12.5292 17.2416 12.9178 17.2415 13.3269 17.2415H13.327L13.3756 17.2415H13.8236L13.8722 17.2415H13.8722C14.2813 17.2415 14.6699 17.2416 14.9887 17.1997C15.3449 17.1529 15.7399 17.0404 16.0669 16.721C16.3938 16.4016 16.5089 16.0157 16.5568 15.6677C16.5997 15.3562 16.5996 14.9765 16.5996 14.5768L16.5996 14.5293V14.0915L16.5996 14.0441C16.5996 13.6444 16.5997 13.2647 16.5568 12.9532C16.5089 12.6052 16.3938 12.2193 16.0669 11.8999C15.7399 11.5804 15.3449 11.4679 14.9887 11.4212C14.6699 11.3793 14.2813 11.3793 13.8722 11.3794L13.8236 11.3794Z" fill="#B3B3B3"/>
<path d="M16.5996 2H16.9996C17.9424 2 18.4138 2 18.7067 2.29289C18.9996 2.58579 18.9996 3.05719 18.9996 4V4.93103" stroke="#B3B3B3" stroke-width="1.2" stroke-linecap="round"/>
<path d="M3.40039 2H3.00041C2.0576 2 1.58619 2 1.2933 2.29289C1.00041 2.58579 1.00041 3.05719 1.00041 4V4.93103" stroke="#B3B3B3" stroke-width="1.2" stroke-linecap="round"/>
<path d="M16.5996 19H16.9996C17.9424 19 18.4138 19 18.7067 18.7071C18.9996 18.4142 18.9996 17.9428 18.9996 17V16.069" stroke="#B3B3B3" stroke-width="1.2" stroke-linecap="round"/>
<path d="M3.40039 19H3.00041C2.0576 19 1.58619 19 1.2933 18.7071C1.00041 18.4142 1.00041 17.9428 1.00041 17V16.069" stroke="#B3B3B3" stroke-width="1.2" stroke-linecap="round"/>
</svg>
