<svg width="57" height="56" viewBox="0 0 57 56" fill="none" xmlns="http://www.w3.org/2000/svg">
<rect x="37.4033" y="33.4551" width="17.5568" height="1.89429" rx="0.947143" transform="rotate(42.6298 37.4033 33.4551)" fill="#B3B3B3"/>
<path d="M24.8966 39.7934C33.6761 39.7934 40.7933 32.6762 40.7933 23.8967C40.7933 15.1172 33.6761 8 24.8966 8C16.1172 8 9 15.1172 9 23.8967C9 32.6762 16.1172 39.7934 24.8966 39.7934Z" stroke="#B3B3B3" stroke-width="1.5" stroke-linecap="round" stroke-linejoin="round"/>
<path fill-rule="evenodd" clip-rule="evenodd" d="M22.3922 28.4607C21.9673 28.9066 21.2614 28.9237 20.8155 28.4988C20.3696 28.074 20.3525 27.3681 20.7774 26.9222L23.2321 24.3458L20.6535 21.8891C20.2076 21.4642 20.1906 20.7583 20.6154 20.3124C21.0403 19.8665 21.7462 19.8494 22.1921 20.2743L24.7706 22.731L27.2273 20.1526C27.6521 19.7067 28.358 19.6896 28.804 20.1144C29.2499 20.5393 29.2669 21.2452 28.8421 21.6911L26.3854 24.2696L28.9617 26.7242C29.4076 27.149 29.4247 27.8549 28.9998 28.3008C28.575 28.7467 27.8691 28.7638 27.4231 28.339L24.8469 25.8843L22.3922 28.4607Z" fill="#B3B3B3"/>
</svg>
