<svg width="57" height="56" viewBox="0 0 57 56" fill="none" xmlns="http://www.w3.org/2000/svg">
<rect x="37.4032" y="33.4556" width="17.5568" height="1.89429" rx="0.947143" transform="rotate(42.6298 37.4032 33.4556)" fill="#7D81A7"/>
<path d="M24.8966 39.7934C33.6761 39.7934 40.7933 32.6762 40.7933 23.8967C40.7933 15.1172 33.6761 8 24.8966 8C16.1172 8 9 15.1172 9 23.8967C9 32.6762 16.1172 39.7934 24.8966 39.7934Z" stroke="#7D81A7" stroke-width="1.5" stroke-linecap="round" stroke-linejoin="round"/>
<path fill-rule="evenodd" clip-rule="evenodd" d="M22.3923 28.4602C21.9674 28.9061 21.2615 28.9232 20.8156 28.4984C20.3697 28.0735 20.3526 27.3676 20.7775 26.9217L23.2322 24.3453L20.6536 21.8886C20.2077 21.4637 20.1906 20.7578 20.6155 20.3119C21.0404 19.866 21.7463 19.8489 22.1922 20.2738L24.7707 22.7305L27.2274 20.1521C27.6522 19.7062 28.3581 19.6891 28.804 20.114C29.25 20.5388 29.267 21.2447 28.8422 21.6906L26.3855 24.2691L28.9618 26.7237C29.4077 27.1485 29.4248 27.8544 28.9999 28.3003C28.575 28.7463 27.8691 28.7633 27.4232 28.3385L24.847 25.8839L22.3923 28.4602Z" fill="#7D81A7"/>
</svg>
