<svg width="20" height="20" viewBox="0 0 20 20" fill="none" xmlns="http://www.w3.org/2000/svg">
<defs>
<linearGradient id="paint0_linear_341_8826" x1="3.1193" y1="17.2037" x2="3.1193" y2="2.82169" gradientUnits="userSpaceOnUse">
<stop stop-color="#00B2E3" stop-opacity="0"/>
<stop offset="0.07" stop-color="#05B3E3" stop-opacity="0.03"/>
<stop offset="0.19" stop-color="#13B7E3" stop-opacity="0.13"/>
<stop offset="0.33" stop-color="#2ABDE4" stop-opacity="0.28"/>
<stop offset="0.49" stop-color="#4AC5E5" stop-opacity="0.49"/>
<stop offset="0.66" stop-color="#73D0E6" stop-opacity="0.75"/>
<stop offset="0.81" stop-color="#9ADBE8"/>
</linearGradient>
<linearGradient id="paint1_linear_341_8826" x1="17.2278" y1="16.8815" x2="2.74652" y2="16.8815" gradientUnits="userSpaceOnUse">
<stop stop-color="#00B2E3" stop-opacity="0"/>
<stop offset="0.07" stop-color="#05B3E3" stop-opacity="0.03"/>
<stop offset="0.19" stop-color="#13B7E3" stop-opacity="0.13"/>
<stop offset="0.33" stop-color="#2ABDE4" stop-opacity="0.28"/>
<stop offset="0.49" stop-color="#4AC5E5" stop-opacity="0.49"/>
<stop offset="0.66" stop-color="#73D0E6" stop-opacity="0.75"/>
<stop offset="0.81" stop-color="#9ADBE8"/>
</linearGradient>
<linearGradient id="paint2_linear_341_8826" x1="16.8813" y1="2.7427" x2="16.8813" y2="17.1183" gradientUnits="userSpaceOnUse">
<stop stop-color="#00B2E3" stop-opacity="0"/>
<stop offset="0.07" stop-color="#05B3E3" stop-opacity="0.03"/>
<stop offset="0.19" stop-color="#13B7E3" stop-opacity="0.13"/>
<stop offset="0.33" stop-color="#2ABDE4" stop-opacity="0.28"/>
<stop offset="0.49" stop-color="#4AC5E5" stop-opacity="0.49"/>
<stop offset="0.66" stop-color="#73D0E6" stop-opacity="0.75"/>
<stop offset="0.81" stop-color="#9ADBE8"/>
</linearGradient>
<linearGradient id="paint3_linear_341_8826" x1="2.68154" y1="3.11955" x2="17.2905" y2="3.11955" gradientUnits="userSpaceOnUse">
<stop stop-color="#00B2E3" stop-opacity="0"/>
<stop offset="0.07" stop-color="#05B3E3" stop-opacity="0.03"/>
<stop offset="0.19" stop-color="#13B7E3" stop-opacity="0.13"/>
<stop offset="0.33" stop-color="#2ABDE4" stop-opacity="0.28"/>
<stop offset="0.49" stop-color="#4AC5E5" stop-opacity="0.49"/>
<stop offset="0.66" stop-color="#73D0E6" stop-opacity="0.75"/>
<stop offset="0.81" stop-color="#9ADBE8"/>
</linearGradient>
</defs>
<path d="M1.28708 17.2827L0.00174165 15.9973L3.31089 12.6882C4.79245 11.2066 4.79245 8.79557 3.31089 7.314L0 4.00311L1.28534 2.71777L4.59623 6.02866C6.78665 8.21908 6.78665 11.7831 4.59623 13.9735L1.28708 17.2827Z" fill="url(#paint0_linear_341_8826)"/>
<path d="M15.997 20.0002L12.6879 16.6911C11.2063 15.2095 8.79529 15.2095 7.31372 16.6911L4.00458 20.0002L2.71924 18.7149L6.02838 15.4058C8.2188 13.2153 11.7828 13.2153 13.9732 15.4058L17.2824 18.7149L15.997 20.0002Z" fill="url(#paint1_linear_341_8826)"/>
<path d="M18.7147 17.2826L15.4055 13.9735C13.2151 11.7831 13.2151 8.21905 15.4055 6.02863L18.7147 2.71948L20 4.00482L16.6909 7.31397C15.2093 8.79553 15.2093 11.2066 16.6909 12.6881L20 15.9973L18.7147 17.2826Z" fill="url(#paint2_linear_341_8826)"/>
<path d="M10.0005 6.23943C8.56194 6.23943 7.12333 5.69197 6.02841 4.59647L2.71753 1.28559L4.00287 0.000244141L7.31376 3.31113C8.79532 4.7927 11.2064 4.7927 12.6879 3.31113L15.9971 0.0019858L17.2824 1.28733L13.9733 4.59647C12.8778 5.69139 11.4397 6.23943 10.0011 6.23943H10.0005Z" fill="url(#paint3_linear_341_8826)"/>
</svg>
