<svg width="20" height="20" viewBox="0 0 20 20" fill="none" xmlns="http://www.w3.org/2000/svg">
<path d="M11.5549 2.29962L13.1387 5.49345C13.3547 5.93805 13.9306 6.3645 14.4166 6.44616L17.2872 6.92704C19.123 7.23554 19.555 8.5784 18.2321 9.90311L16.0004 12.1533C15.6224 12.5344 15.4154 13.2693 15.5324 13.7956L16.1714 16.5811C16.6753 18.7859 15.5144 19.6388 13.5796 18.4865L10.8889 16.8805C10.403 16.5902 9.60209 16.5902 9.10714 16.8805L6.41644 18.4865C4.49065 19.6388 3.32078 18.7769 3.82473 16.5811L4.46366 13.7956C4.58064 13.2693 4.37367 12.5344 3.99571 12.1533L1.76395 9.90311C0.4501 8.5784 0.873053 7.23554 2.70885 6.92704L5.57953 6.44616C6.05648 6.3645 6.63242 5.93805 6.84839 5.49345L8.43222 2.29962C9.29612 0.566611 10.7 0.566611 11.5549 2.29962Z" fill="#B3B3B3"/>
</svg>
