<svg width="20" height="20" viewBox="0 0 20 20" fill="none" xmlns="http://www.w3.org/2000/svg">
<path d="M2.92857 8.07138C2.92857 4.16597 6.09456 1 10 1C13.9054 1 17.0714 4.16597 17.0714 8.07138V8.79523C18.1805 9.08072 19 10.0875 19 11.2856V13.8571C19 15.2772 17.8487 16.4285 16.4286 16.4285C16.2803 16.4285 16.135 16.4159 15.9936 16.3918C15.1134 18.0653 13.32 19.0919 11.4142 18.9935C11.372 18.9978 11.3291 18.9999 11.2857 18.9999H10C9.2899 18.9999 8.71429 18.4243 8.71429 17.7142C8.71429 17.0041 9.2899 16.4285 10 16.4285H11.2857C11.957 16.4285 12.5082 16.943 12.5663 17.5992C13.5132 17.3544 14.3365 16.7314 14.8185 15.8621C14.2323 15.3908 13.8571 14.6678 13.8571 13.8571V11.2856C13.8571 10.0875 14.6767 9.08072 15.7857 8.79523V8.07138C15.7857 4.87604 13.1954 2.28571 10 2.28571C6.80461 2.28571 4.21429 4.87604 4.21429 8.07138V8.79523C5.32336 9.08072 6.14286 10.0875 6.14286 11.2856V13.8571C6.14286 15.2772 4.99159 16.4285 3.57143 16.4285C2.15127 16.4285 1 15.2772 1 13.8571V11.2856C1 10.0875 1.8195 9.08072 2.92857 8.79523V8.07138Z" fill="#B3B3B3"/>
</svg>
