<svg width="40" height="40" viewBox="0 0 40 40" fill="none" xmlns="http://www.w3.org/2000/svg">
  <path d="M20 40a20 20 0 1 0 0-40 20 20 0 0 0 0 40Z" fill="#fff" fill-opacity=".1"/>
  <path d="M19.95 12c1.7.02 3.35.26 4.93.93a6.1 6.1 0 0 1 2.31 1.59 2.56 2.56 0 0 1 .01 3.5 6.1 6.1 0 0 1-2.27 1.58c-1.62.7-3.32.95-5.06.95-1.46 0-2.89-.21-4.28-.7a7.1 7.1 0 0 1-2.55-1.46 3.4 3.4 0 0 1-.8-1.07 2.51 2.51 0 0 1 .44-2.78 6.13 6.13 0 0 1 2.35-1.62c1.57-.66 3.23-.9 4.92-.92Zm7.65 10.85a2.3 2.3 0 0 1 0 1.78 3.72 3.72 0 0 1-1.3 1.57 8.9 8.9 0 0 1-3.68 1.52c-2.15.42-4.3.38-6.43-.2a7.69 7.69 0 0 1-3.2-1.64c-.45-.4-.81-.86-1-1.45a2.3 2.3 0 0 1 .07-1.57c.09.15.15.29.23.41a5.03 5.03 0 0 0 2.11 1.8c1.2.6 2.46.9 3.77 1.06 1.66.2 3.34.1 4.97-.3a8.88 8.88 0 0 0 2.95-1.24 4.1 4.1 0 0 0 1.52-1.74Z" fill="#fff"/>
  <path d="M27.63 19.16c.3.82.2 1.54-.23 2.22-.5.8-1.23 1.33-2.04 1.73a12.52 12.52 0 0 1-6.4 1.17 12.18 12.18 0 0 1-3.43-.66 6.47 6.47 0 0 1-2.93-1.85 2.49 2.49 0 0 1-.6-2.36l.08-.24c.08.16.15.3.23.42a4.98 4.98 0 0 0 2.1 1.8c1.37.68 2.83 1 4.33 1.11 1.5.12 3 0 4.45-.35a8.85 8.85 0 0 0 2.97-1.28 4.05 4.05 0 0 0 1.47-1.71Z" fill="#fff"/>
</svg>
