<svg width="24" height="24" viewBox="0 0 24 24" fill="none" xmlns="http://www.w3.org/2000/svg">
<path d="M17.3223 6.3224L10.3702 9.70562L10.3303 5.91602L10.33 5.88372L10.3038 5.90272L6.69996 8.52268L6.58446 8.58885C6.11679 8.85655 5.67438 9.19135 5.27057 9.59538C2.83944 12.028 2.83944 15.9721 5.27057 18.4047C7.70174 20.8374 11.6434 20.8374 14.0745 18.4047C14.4358 18.0432 14.7416 17.6508 14.9935 17.2373L15.0546 17.1369L17.8796 13.3671L17.8987 13.3416L17.8668 13.3405L14.0108 13.2035L17.3446 6.34467L17.3657 6.3013L17.3223 6.3224ZM5.37898 6.47686L12.7108 1.14668L12.7599 5.81178L12.7602 5.83812L12.7839 5.8266L22.6276 1.03609L17.8417 10.8826L17.8305 10.9056L17.8561 10.9065L22.6342 11.0763L17.0698 18.5018L17.0697 18.5018L17.0689 18.5032C16.7173 19.0803 16.2921 19.6253 15.7932 20.1245C12.4128 23.5069 6.93225 23.5069 3.55192 20.1245C0.171582 16.742 0.171582 11.258 3.55192 7.87562C4.10958 7.31765 4.72437 6.85172 5.37746 6.47784L5.37751 6.47793L5.37898 6.47686Z" fill="white" stroke="white" stroke-width="0.0333333"/>
</svg>
