<svg width="1200" height="1200" viewBox="0 0 1200 1200" fill="none" xmlns="http://www.w3.org/2000/svg">
<path d="M0 600C0 268.629 268.629 0 600 0C931.371 0 1200 268.629 1200 600C1200 931.371 931.371 1200 600 1200C268.629 1200 0 931.371 0 600Z" fill="#8AE06B"/>
<path d="M764.669 434.672L556.106 536.169L554.909 422.481L554.899 421.512L554.115 422.081L445.999 500.68L442.534 502.665C428.504 510.696 415.231 520.74 403.117 532.862C330.183 605.841 330.183 724.163 403.117 797.141C476.052 870.121 594.301 870.121 667.235 797.141C678.075 786.295 687.248 774.525 694.805 762.118L696.64 759.106L781.387 646.014L781.961 645.248L781.005 645.214L665.324 641.104L765.337 435.34L765.97 434.039L764.669 434.672ZM406.369 439.306L626.323 279.4L627.797 419.354L627.805 420.144L628.516 419.798L923.829 276.083L780.252 571.477L779.916 572.168L780.684 572.195L924.026 577.288L757.093 800.055L757.079 800.074L757.066 800.095C746.519 817.41 733.762 833.758 718.795 848.734C617.385 950.206 452.967 950.206 351.558 848.734C250.147 747.261 250.147 582.741 351.558 481.269C368.287 464.53 386.731 450.552 406.324 439.335L406.347 439.322L406.369 439.306Z" fill="black" stroke="black"/>
</svg>
