<svg width="16" height="16" viewBox="0 0 16 16" fill="none" xmlns="http://www.w3.org/2000/svg">
<path d="M13.694 0.0352469C13.2336 -0.0356077 12.7619 0.00472336 12.3223 0.152525C11.8827 0.300326 11.4892 0.550846 11.1783 0.881011C10.5848 1.51299 10.4001 2.33577 10.5426 3.16023C10.6717 3.90379 10.843 4.65841 10.8815 5.37472C10.9354 6.45357 10.7626 7.53182 10.3732 8.54654C10.0208 9.4647 9.51875 10.1767 8.4429 10.3343C8.3631 10.3462 8.07261 10.3548 7.99014 10.359C7.90766 10.3633 7.64677 10.3471 7.56607 10.3352C6.49022 10.1776 5.98365 9.46556 5.63222 8.54144C5.24277 7.5267 5.06996 6.44847 5.12388 5.3696C5.16241 4.65585 5.33367 3.90037 5.46276 3.15511C5.60532 2.33065 5.42063 1.50788 4.8271 0.8759C4.51514 0.545982 4.12073 0.296028 3.68027 0.149106C3.23981 0.00218305 2.76751 -0.0369743 2.3069 0.0352469C0.927113 0.24903 0.00814941 1.41249 8.04447e-05 2.633C-0.00377009 3.10327 0.130681 3.56523 0.388288 3.96681C0.817734 4.63968 1.52242 5.13026 2.13746 5.6396C2.54449 5.98029 3.24827 6.94701 3.59346 7.99462C3.80235 8.62916 3.97269 9.27221 4.14126 9.92124C4.37795 10.8258 4.70338 12.8239 4.91766 13.731C5.34532 15.5469 6.65427 15.9583 7.96593 16H8.01255C9.32421 15.9583 10.6547 15.546 11.0824 13.7302C11.2957 12.8231 11.6203 10.8241 11.8588 9.92038C12.0282 9.27477 12.1977 8.62831 12.4065 7.99377C12.7517 6.94615 13.4555 5.97604 13.8625 5.63874C14.4776 5.12772 15.1814 4.63883 15.6117 3.96595C15.8693 3.56437 16.0038 3.10242 15.9999 2.63215C15.9928 1.40908 15.0774 0.244772 13.694 0.0352469Z" fill="white"/>
</svg>
