<svg width="24" height="24" viewBox="0 0 24 24" fill="none" xmlns="http://www.w3.org/2000/svg">
<path fill-rule="evenodd" clip-rule="evenodd" d="M21.5914 10.1712L21.594 13.794C21.5685 14.1392 21.5356 14.4839 21.4954 14.828C21.4281 15.4034 20.9603 15.8676 20.3729 15.9332C18.5332 16.1388 16.6294 16.1388 14.7896 15.9332C14.2022 15.8676 13.7344 15.4034 13.6671 14.828C13.4474 12.949 13.4474 11.0508 13.6671 9.17177C13.7344 8.59636 14.2022 8.13222 14.7896 8.06657C16.6294 7.86095 18.5332 7.86095 20.3729 8.06657C20.9603 8.13222 21.4281 8.59636 21.4954 9.17177C21.5343 9.50437 21.5663 9.83758 21.5914 10.1712ZM17.5813 10.4999C16.7528 10.4999 16.0813 11.1715 16.0813 11.9999C16.0813 12.8283 16.7528 13.4999 17.5813 13.4999C18.4097 13.4999 19.0813 12.8283 19.0813 11.9999C19.0813 11.1715 18.4097 10.4999 17.5813 10.4999Z" fill="#B3B3B3"/>
<path d="M20.9849 6.03961C21.1403 6.30887 20.8485 6.61039 20.5395 6.57585C18.589 6.35785 16.5735 6.35785 14.623 6.57585C13.3536 6.71772 12.327 7.71726 12.1773 8.99752C11.944 10.9923 11.944 13.0075 12.1773 15.0023C12.327 16.2825 13.3536 17.2821 14.623 17.4239C16.5735 17.6419 18.589 17.6419 20.5395 17.4239C20.8506 17.3892 21.1448 17.6928 20.9878 17.9635C20.2092 19.3064 18.8211 20.2436 17.2081 20.4133L16.5562 20.4819C13.2454 20.8303 9.90592 20.8073 6.60016 20.4134L6.16822 20.3619C4.3861 20.1496 2.97405 18.7572 2.73668 16.9782C2.29578 13.674 2.29578 10.3258 2.73668 7.02154C2.97405 5.24257 4.3861 3.85022 6.16822 3.63786L6.60016 3.58638C9.90591 3.19246 13.2454 3.16948 16.5562 3.51789L17.2081 3.58648C18.8225 3.75637 20.2084 4.69498 20.9849 6.03961Z" fill="#B3B3B3"/>
</svg>
