<svg width="40" height="40" viewBox="0 0 40 40" fill="none" xmlns="http://www.w3.org/2000/svg">
<g clip-path="url(#clip0_3223_323350)">
<path d="M20 40C31.0457 40 40 31.0457 40 20C40 8.9543 31.0457 0 20 0C8.9543 0 0 8.9543 0 20C0 31.0457 8.9543 40 20 40Z" fill="#F7F7F7"/>
<rect width="20" height="20" transform="translate(10 10)" fill="#F7F7F7"/>
<path d="M22.18 18.6303C22.5968 18.5758 22.9847 18.8703 23.008 19.2894C23.0211 19.5262 23.0281 19.7573 23.0281 19.9809C23.0281 20.6912 22.9574 21.4771 22.8432 22.2823C22.7991 22.5938 22.5542 22.8382 22.2422 22.8823C21.4357 22.9963 20.6486 23.067 19.9371 23.067C19.2284 23.067 18.4414 22.9964 17.6321 22.882C17.3201 22.8379 17.0752 22.5934 17.031 22.2819C16.9169 21.4768 16.8462 20.6911 16.8462 19.9809C16.8462 19.7573 16.8532 19.5262 16.8663 19.2894C16.8897 18.8703 17.2775 18.5758 17.6944 18.6303C18.4726 18.732 19.235 18.794 19.9372 18.794C20.6394 18.794 21.4017 18.732 22.18 18.6303Z" fill="#B3B3B3"/>
<path d="M24.5574 18.1834C24.1885 18.2645 23.938 18.6078 23.9656 18.9839C23.9923 19.3467 24.0069 19.7005 24.0069 20.04C24.0069 20.5204 23.9777 21.0291 23.9265 21.5517C23.8772 22.0559 24.3259 22.4764 24.8199 22.3602C26.0799 22.0638 27.0098 21.779 27.7197 21.5617C28.0071 21.4738 28.1779 21.4396 28.3294 21.3791C28.36 21.3669 28.4499 21.3381 28.5521 21.3052C28.7908 21.2285 28.9529 21.0237 28.972 20.7741C28.9906 20.5318 29 20.287 29 20.04C29 19.2196 28.8958 18.938 28.6999 18.1787C28.6217 17.8757 28.3098 17.188 28.0051 17.2613C27.1864 17.51 26.0983 17.8447 24.5574 18.1834Z" fill="#B3B3B3"/>
<path d="M27.5836 15.5072C27.8219 15.8919 27.6097 16.3826 27.174 16.5065C26.4232 16.7201 25.4751 16.9724 24.4548 17.2022C24.0494 17.2936 23.6546 17.0218 23.5776 16.614C23.3065 15.1767 22.9529 13.7897 22.6571 12.7316C22.4995 12.1676 23.0238 11.6578 23.5538 11.9083C25.22 12.6958 26.6202 13.9524 27.5836 15.5072Z" fill="#B3B3B3"/>
<path d="M22.6285 16.9009C22.7032 17.2979 22.4315 17.6755 22.0304 17.7285C21.2981 17.8254 20.5861 17.8842 19.9372 17.8842C19.2882 17.8842 18.5763 17.8254 17.844 17.7285C17.4429 17.6755 17.1712 17.2979 17.2459 16.9009C17.6329 14.8453 18.2049 12.857 18.513 11.8531C18.6011 11.5662 18.6361 11.4535 18.6968 11.3022C18.7563 11.1535 18.8975 11.0547 19.0573 11.0401C19.347 11.0136 19.6405 11 19.9371 11C20.3082 11 20.6742 11.0212 21.0342 11.0625C21.0879 11.0686 21.1318 11.1074 21.1465 11.1594C21.1687 11.2381 21.2036 11.3488 21.2621 11.5345L21.2683 11.554C21.5339 12.397 22.1964 14.6057 22.6285 16.9009Z" fill="#B3B3B3"/>
<path d="M12.1326 17.2613C11.754 17.1556 11.3564 17.367 11.2643 17.7486C11.0915 18.4645 11 19.2119 11 19.9808C11 20.2517 11.0114 20.52 11.0336 20.7851C11.0525 21.0091 11.2111 21.1946 11.4268 21.259C11.475 21.275 12.6875 21.6863 14.5496 22.1489C14.7556 22.2 14.9663 22.251 15.1806 22.3011C15.6746 22.4167 16.1228 21.9967 16.0735 21.4925C16.0223 20.9698 15.9931 20.4612 15.9931 19.9808C15.9931 19.6411 16.0077 19.2874 16.0343 18.9246C16.0619 18.5485 15.8115 18.2052 15.4423 18.1256C13.961 17.8066 13.0967 17.5506 12.2803 17.3026L12.1326 17.2613Z" fill="#B3B3B3"/>
<path d="M19.9182 24.0149C20.3994 24.0149 20.9088 23.9858 21.4323 23.9347C21.9374 23.8854 22.358 24.3331 22.2422 24.8263C21.9166 26.2123 21.5623 27.4303 21.3423 28.1469C21.2542 28.4338 21.2192 28.5465 21.1586 28.6978C21.099 28.8465 20.9578 28.9453 20.7981 28.9599C20.5084 28.9864 20.2149 29 19.9182 29C19.6215 29 19.3281 28.9864 19.0383 28.9599C18.8786 28.9453 18.7374 28.8465 18.6778 28.6978C18.6172 28.5465 18.5822 28.4338 18.4941 28.1469C18.2742 27.4304 17.9198 26.2125 17.5943 24.8266C17.4785 24.3334 17.8991 23.8857 18.4041 23.9349C18.9266 23.9858 19.436 24.0149 19.9182 24.0149Z" fill="#B3B3B3"/>
<path d="M14.0108 23.0084C13.3873 22.8536 12.8128 22.6983 12.3194 22.5587C11.8493 22.4256 11.4213 22.8617 11.6196 23.3076C12.6206 25.5584 14.4725 27.3484 16.7676 28.2705C17.0639 28.3896 17.3359 28.0889 17.2071 27.7971C16.9363 26.9151 16.705 25.7962 16.3543 23.9934C16.2974 23.7006 16.0678 23.4716 15.7752 23.4112C15.1592 23.2839 14.5632 23.1456 14.0108 23.0084Z" fill="#B3B3B3"/>
<path d="M27.7018 22.5234C26.819 22.7935 25.9054 23.0758 24.1354 23.4338C23.8426 23.493 23.6126 23.7224 23.5538 24.0149C23.1951 25.8 22.9122 26.8155 22.6416 27.6972C22.5278 28.0656 22.8714 28.4047 23.2282 28.2573C25.5214 27.3096 27.3626 25.4922 28.3392 23.2169C28.5147 22.808 28.132 22.4073 27.7018 22.5234Z" fill="#B3B3B3"/>
<path d="M11.4268 21.259C11.4597 21.2633 11.685 21.33 11.4268 21.259C11.432 21.2606 11.4346 21.2609 11.4268 21.259Z" fill="#B3B3B3"/>
<path d="M12.3194 15.5072C12.0811 15.8919 12.2933 16.3826 12.729 16.5065C13.4798 16.7201 14.4279 16.9724 15.3434 17.2022C15.7465 17.3034 16.2484 17.0218 16.3254 16.614C16.5965 15.1767 16.9501 13.7897 17.2459 12.7316C17.4036 12.1676 16.8792 11.6578 16.3492 11.9083C14.6831 12.6958 13.2828 13.9524 12.3194 15.5072Z" fill="#B3B3B3"/>
</g>
<defs>
<clipPath id="clip0_3223_323350">
<rect width="40" height="40" fill="white"/>
</clipPath>
</defs>
</svg>
