<svg width="40" height="40" viewBox="0 0 40 40" fill="none" xmlns="http://www.w3.org/2000/svg">
<rect width="40" height="40" rx="20" fill="#2B63F1"/>
<path d="M12.8182 24H9.8608V15.2727H12.8778C13.7443 15.2727 14.4886 15.4474 15.1108 15.7969C15.7358 16.1435 16.2159 16.642 16.5511 17.2926C16.8864 17.9432 17.054 18.7216 17.054 19.6278C17.054 20.5369 16.8849 21.3182 16.5469 21.9716C16.2116 22.625 15.7273 23.1264 15.0938 23.4759C14.4631 23.8253 13.7045 24 12.8182 24ZM11.4418 22.6321H12.7415C13.3494 22.6321 13.8565 22.5213 14.2628 22.2997C14.669 22.0753 14.9744 21.7415 15.179 21.2983C15.3835 20.8523 15.4858 20.2955 15.4858 19.6278C15.4858 18.9602 15.3835 18.4062 15.179 17.9659C14.9744 17.5227 14.6719 17.1918 14.2713 16.973C13.8736 16.7514 13.3793 16.6406 12.7884 16.6406H11.4418V22.6321ZM20.9057 24.1278C20.2494 24.1278 19.6826 23.9915 19.2054 23.7188C18.7309 23.4432 18.3659 23.054 18.1102 22.5511C17.8545 22.0455 17.7267 21.4503 17.7267 20.7656C17.7267 20.0923 17.8545 19.5014 18.1102 18.9929C18.3687 18.4815 18.7295 18.0838 19.1926 17.7997C19.6557 17.5128 20.1997 17.3693 20.8247 17.3693C21.2281 17.3693 21.6088 17.4347 21.9667 17.5653C22.3275 17.6932 22.6457 17.892 22.9213 18.1619C23.1997 18.4318 23.4184 18.7756 23.5775 19.1932C23.7366 19.608 23.8162 20.1023 23.8162 20.6761V21.1491H18.4511V20.1094H22.3375C22.3346 19.8139 22.2707 19.5511 22.1457 19.321C22.0207 19.0881 21.846 18.9048 21.6216 18.7713C21.4 18.6378 21.1414 18.571 20.846 18.571C20.5307 18.571 20.2537 18.6477 20.015 18.8011C19.7764 18.9517 19.5903 19.1506 19.4568 19.3977C19.3261 19.642 19.2593 19.9105 19.2565 20.2031V21.1108C19.2565 21.4915 19.3261 21.8182 19.4653 22.0909C19.6045 22.3608 19.7991 22.5682 20.0491 22.7131C20.2991 22.8551 20.5917 22.9261 20.927 22.9261C21.1514 22.9261 21.3545 22.8949 21.5363 22.8324C21.7182 22.767 21.8758 22.6719 22.0093 22.5469C22.1429 22.4219 22.2437 22.267 22.3119 22.0824L23.7522 22.2443C23.6613 22.625 23.488 22.9574 23.2324 23.2415C22.9795 23.5227 22.6557 23.7415 22.2608 23.8977C21.8659 24.0511 21.4142 24.1278 20.9057 24.1278ZM27.9565 17.4545V18.6477H24.0872V17.4545H27.9565ZM25.0546 24V16.8366C25.0546 16.3963 25.1455 16.0298 25.3273 15.7372C25.5119 15.4446 25.7591 15.2259 26.0688 15.081C26.3784 14.9361 26.7222 14.8636 27.1 14.8636C27.3671 14.8636 27.6043 14.8849 27.8117 14.9276C28.019 14.9702 28.1725 15.0085 28.2719 15.0426L27.9651 16.2358C27.8997 16.2159 27.8173 16.196 27.7179 16.1761C27.6185 16.1534 27.5077 16.142 27.3855 16.142C27.0986 16.142 26.8955 16.2116 26.7762 16.3509C26.6597 16.4872 26.6014 16.6832 26.6014 16.9389V24H25.0546ZM28.6846 24V17.4545H30.2273V24H28.6846ZM29.4602 16.5256C29.2159 16.5256 29.0057 16.4446 28.8295 16.2827C28.6534 16.1179 28.5653 15.9205 28.5653 15.6903C28.5653 15.4574 28.6534 15.2599 28.8295 15.098C29.0057 14.9332 29.2159 14.8509 29.4602 14.8509C29.7074 14.8509 29.9176 14.9332 30.0909 15.098C30.267 15.2599 30.3551 15.4574 30.3551 15.6903C30.3551 15.9205 30.267 16.1179 30.0909 16.2827C29.9176 16.4446 29.7074 16.5256 29.4602 16.5256Z" fill="white"/>
</svg>
